<?xml version="1.0" standalone="no"?>
<!DOCTYPE svg PUBLIC "-//W3C//DTD SVG 20010904//EN"
 "http://www.w3.org/TR/2001/REC-SVG-20010904/DTD/svg10.dtd">
<svg version="1.0" xmlns="http://www.w3.org/2000/svg"
 width="21600.000000pt" height="7200.000000pt" viewBox="0 0 21600.000000 7200.000000"
 preserveAspectRatio="xMidYMid meet">
<metadata>
Created by potrace 1.16, written by Peter Selinger 2001-2019
</metadata>
<g transform="translate(0.000000,7200.000000) scale(0.100000,-0.100000)"
fill="#000000" stroke="none">
<path d="M19825 46250 c-134 -4 -189 -9 -215 -21 -19 -9 -69 -19 -110 -23 -41
-4 -98 -13 -126 -21 -51 -15 -81 -17 -354 -30 -97 -4 -163 -12 -200 -24 -177
-59 -225 -68 -395 -76 -122 -6 -134 -9 -191 -40 -72 -39 -134 -53 -266 -58
-81 -4 -103 -9 -140 -31 -79 -47 -112 -59 -198 -68 -91 -9 -151 -27 -216 -65
-27 -15 -74 -28 -138 -37 -83 -11 -104 -18 -149 -49 -40 -28 -69 -39 -127 -48
-69 -11 -107 -26 -200 -79 -19 -11 -46 -20 -60 -20 -43 0 -93 -18 -149 -54
-30 -20 -82 -41 -118 -50 -38 -8 -89 -30 -126 -54 -39 -25 -80 -42 -109 -47
-30 -4 -69 -20 -105 -44 -32 -21 -81 -44 -109 -50 -32 -8 -68 -26 -97 -51 -31
-25 -62 -41 -90 -45 -47 -8 -91 -32 -126 -69 -13 -14 -40 -27 -63 -31 -26 -5
-60 -23 -96 -53 -42 -34 -69 -48 -105 -53 -38 -6 -59 -18 -102 -57 -30 -27
-66 -53 -81 -56 -15 -4 -41 -19 -58 -33 -16 -14 -53 -35 -80 -48 -28 -12 -69
-40 -91 -62 -29 -29 -53 -43 -82 -47 -24 -5 -50 -18 -64 -33 -13 -14 -48 -41
-78 -60 -30 -19 -64 -47 -75 -60 -11 -14 -45 -37 -75 -50 -31 -14 -72 -40 -93
-59 -21 -19 -43 -34 -48 -34 -6 0 -37 -24 -69 -52 -124 -110 -161 -139 -196
-154 -20 -8 -78 -52 -128 -97 -51 -45 -108 -94 -128 -109 -20 -15 -92 -83
-162 -151 -69 -69 -146 -139 -170 -156 -46 -32 -368 -358 -395 -401 -14 -22
-86 -97 -255 -270 -24 -25 -51 -58 -60 -75 -8 -16 -27 -41 -42 -55 -15 -14
-35 -41 -45 -60 -10 -19 -28 -44 -40 -55 -12 -11 -40 -45 -60 -76 -21 -31 -49
-63 -63 -72 -13 -8 -32 -31 -41 -51 -9 -20 -32 -47 -50 -61 -19 -14 -45 -49
-59 -78 -13 -29 -34 -61 -46 -71 -12 -11 -31 -40 -41 -64 -11 -25 -38 -64 -59
-87 -21 -23 -48 -62 -58 -86 -11 -24 -30 -53 -42 -63 -12 -11 -31 -40 -42 -65
-11 -25 -35 -62 -53 -81 -39 -41 -56 -71 -56 -99 0 -12 -15 -38 -33 -58 -44
-51 -63 -82 -71 -118 -4 -17 -21 -49 -39 -71 -18 -23 -39 -61 -47 -84 -8 -23
-29 -56 -46 -73 -35 -33 -49 -60 -59 -119 -3 -23 -21 -55 -45 -83 -40 -46 -44
-55 -55 -117 -3 -23 -21 -56 -45 -83 -22 -26 -42 -56 -44 -68 -20 -104 -29
-131 -60 -171 -23 -31 -38 -64 -45 -103 -12 -61 -19 -76 -64 -141 -19 -27 -31
-60 -38 -106 -10 -72 -25 -112 -64 -165 -13 -18 -27 -50 -30 -70 -16 -113 -27
-149 -60 -197 -30 -43 -37 -64 -45 -133 -15 -134 -21 -154 -57 -201 -38 -50
-38 -49 -50 -182 -8 -80 -16 -109 -48 -175 -34 -70 -39 -89 -46 -188 -11 -143
-14 -156 -57 -244 -34 -70 -36 -80 -43 -220 -11 -197 -25 -314 -42 -348 -8
-15 -23 -66 -35 -113 -18 -75 -21 -129 -27 -445 -5 -311 -9 -370 -26 -433 -17
-65 -19 -108 -19 -455 0 -315 3 -392 16 -437 16 -58 32 -373 34 -680 1 -124 5
-175 16 -205 9 -22 19 -62 23 -90 4 -27 17 -81 29 -120 15 -51 24 -117 31
-240 9 -166 19 -213 60 -286 15 -26 30 -118 40 -239 8 -104 13 -123 50 -200
36 -76 41 -97 49 -193 8 -99 11 -110 41 -147 42 -53 49 -74 60 -192 8 -78 15
-108 30 -127 41 -51 62 -102 70 -172 8 -57 16 -79 40 -110 39 -48 48 -72 57
-151 8 -71 12 -82 60 -145 19 -25 34 -51 34 -58 0 -48 25 -117 54 -152 22 -25
39 -60 50 -103 9 -36 25 -76 36 -90 44 -55 51 -70 66 -140 12 -58 23 -82 53
-116 20 -23 44 -62 51 -85 8 -23 29 -59 46 -80 18 -22 41 -68 53 -106 13 -45
31 -78 50 -97 18 -17 37 -51 45 -80 10 -35 28 -64 55 -90 26 -25 43 -53 47
-75 4 -20 23 -52 45 -76 21 -23 47 -62 58 -87 10 -25 33 -61 51 -81 17 -20 36
-52 41 -71 5 -19 28 -52 50 -73 23 -21 49 -56 59 -79 10 -23 31 -56 48 -75 16
-19 39 -52 50 -74 11 -22 37 -55 56 -73 20 -19 36 -41 36 -49 0 -9 21 -37 48
-63 52 -52 128 -147 153 -190 8 -15 34 -49 57 -75 23 -26 42 -53 42 -59 0 -6
45 -56 100 -111 55 -54 100 -103 100 -107 0 -11 632 -640 707 -704 37 -31 83
-74 101 -95 18 -21 51 -48 72 -60 22 -13 40 -26 40 -30 0 -4 24 -23 53 -43 90
-63 204 -154 325 -262 26 -23 63 -49 82 -59 19 -9 46 -28 60 -40 14 -13 47
-33 73 -46 27 -12 58 -35 70 -51 12 -17 42 -42 67 -56 25 -14 61 -38 80 -53
19 -15 52 -32 73 -39 20 -6 60 -31 89 -56 28 -24 67 -49 87 -55 20 -6 47 -22
61 -34 14 -13 48 -34 77 -49 28 -14 72 -43 98 -66 27 -24 56 -40 71 -40 33 0
60 -15 110 -60 30 -27 53 -39 88 -44 35 -6 62 -19 101 -50 38 -32 65 -45 100
-50 34 -6 61 -19 100 -50 38 -32 65 -45 100 -50 35 -6 62 -19 101 -52 45 -36
62 -44 95 -44 46 0 68 -10 126 -57 30 -25 57 -36 102 -44 78 -12 103 -22 149
-58 45 -35 91 -51 145 -51 32 0 51 -9 92 -40 46 -36 61 -41 136 -51 67 -9 97
-18 149 -49 52 -30 85 -41 160 -53 70 -11 116 -25 170 -52 63 -32 88 -38 179
-47 58 -5 116 -15 127 -21 12 -7 45 -26 73 -43 48 -29 60 -31 169 -37 119 -5
196 -24 287 -70 32 -16 71 -22 190 -29 173 -9 224 -19 320 -61 70 -31 71 -31
320 -39 223 -7 256 -10 305 -30 46 -18 71 -22 151 -20 86 3 99 1 140 -22 l44
-26 840 0 c825 1 841 1 895 21 30 12 91 25 135 29 44 4 112 15 150 23 43 10
151 18 280 22 229 7 316 20 431 66 65 26 88 30 226 35 143 5 157 8 215 35 90
43 145 57 268 68 97 8 120 14 195 50 75 35 98 41 193 49 99 8 111 12 147 41
52 41 77 50 177 60 73 7 90 13 123 40 51 41 78 50 162 55 71 5 100 17 149 63
20 18 48 28 112 38 72 12 97 21 146 54 43 29 70 41 96 41 46 0 93 20 137 58
20 19 55 36 84 42 53 12 77 25 119 64 15 14 44 28 64 32 67 11 128 35 150 58
12 13 48 33 79 45 31 11 78 38 104 60 26 21 63 42 83 45 20 4 59 27 90 51 32
26 72 49 96 54 23 5 55 23 73 40 17 16 55 42 84 56 29 15 68 39 85 54 18 16
49 34 69 40 21 7 59 32 85 55 26 24 63 51 80 60 18 9 47 29 65 45 18 15 48 33
66 39 31 11 61 34 195 153 29 25 68 56 87 69 19 13 52 37 72 54 20 17 64 51
98 76 107 78 192 157 515 478 291 288 316 316 325 357 6 28 7 52 1 63 -13 24
-228 232 -240 232 -5 0 -172 161 -370 358 -650 646 -1026 1016 -1036 1019 -6
2 -71 -59 -146 -134 -75 -76 -172 -169 -217 -207 -45 -38 -82 -72 -82 -76 0
-16 -271 -250 -309 -267 -14 -6 -44 -27 -65 -47 -22 -20 -44 -36 -48 -36 -5 0
-30 -19 -56 -43 -26 -23 -65 -56 -87 -72 -22 -16 -50 -39 -61 -51 -12 -12 -41
-32 -65 -44 -24 -13 -60 -35 -79 -50 -19 -15 -53 -37 -75 -48 -22 -11 -55 -37
-73 -56 -19 -20 -46 -39 -60 -42 -50 -11 -80 -25 -104 -51 -12 -14 -48 -38
-79 -53 -31 -16 -69 -40 -86 -54 -16 -13 -43 -28 -59 -32 -44 -10 -86 -33
-120 -65 -18 -18 -46 -32 -70 -36 -50 -8 -102 -34 -133 -67 -13 -14 -40 -28
-60 -32 -56 -9 -89 -24 -133 -61 -22 -18 -50 -35 -62 -37 -109 -23 -137 -32
-181 -61 -65 -44 -96 -55 -151 -55 -49 0 -70 -9 -124 -51 -37 -29 -113 -49
-184 -49 -30 0 -53 -8 -77 -25 -67 -48 -92 -56 -211 -71 -100 -12 -132 -21
-189 -50 -70 -35 -171 -53 -309 -54 -30 -1 -73 -8 -95 -16 -175 -65 -304 -83
-615 -84 -133 0 -168 -4 -245 -25 -89 -25 -92 -25 -531 -25 l-441 0 -61 25
c-58 24 -73 25 -249 25 -334 1 -459 17 -638 84 -24 9 -77 15 -130 16 -147 1
-219 14 -303 56 -69 34 -89 38 -192 46 -109 9 -118 11 -182 49 -60 36 -76 41
-162 49 -100 10 -116 15 -178 60 -25 19 -61 31 -115 40 -56 9 -96 24 -143 51
-43 24 -92 43 -145 53 -56 12 -90 25 -115 45 -50 39 -72 50 -132 61 -35 7 -62
20 -83 40 -37 36 -93 60 -139 60 -26 0 -46 10 -81 40 -25 21 -64 45 -88 51
-23 7 -57 24 -75 38 -60 46 -86 61 -127 72 -22 6 -53 22 -69 36 -16 13 -54 37
-85 53 -31 15 -69 42 -86 59 -19 21 -43 34 -69 38 -28 4 -54 19 -86 48 -25 24
-64 52 -86 63 -23 12 -54 32 -70 45 -16 13 -49 34 -73 46 -24 13 -53 33 -65
45 -11 12 -39 35 -61 51 -22 16 -61 47 -87 70 -26 22 -74 60 -108 85 -34 25
-105 83 -158 129 -53 46 -113 95 -132 110 -51 39 -472 460 -500 501 -13 19
-35 47 -49 61 -14 14 -51 56 -81 93 -30 37 -74 89 -98 117 -23 27 -42 54 -42
59 0 6 -24 37 -54 69 -30 33 -61 72 -69 88 -8 15 -29 40 -46 55 -17 16 -38 45
-46 65 -9 21 -29 52 -45 68 -16 17 -38 50 -48 75 -11 25 -38 63 -60 84 -23 22
-44 52 -47 67 -4 16 -24 49 -44 74 -21 26 -44 64 -51 85 -7 21 -30 57 -50 79
-23 24 -42 58 -49 86 -6 25 -26 62 -45 83 -42 47 -56 74 -56 107 0 32 -21 73
-50 100 -29 26 -50 68 -50 100 0 32 -24 80 -61 122 -15 18 -31 50 -34 70 -4
21 -9 50 -11 66 -3 15 -23 50 -44 79 -32 41 -41 65 -51 125 -8 51 -20 86 -39
111 -44 61 -52 81 -61 155 -9 70 -13 82 -63 169 -20 35 -29 69 -37 138 -7 76
-16 104 -48 168 -37 71 -41 87 -50 197 -9 98 -17 135 -45 205 -40 99 -56 199
-56 346 0 80 -5 116 -20 156 -11 29 -20 68 -20 86 0 18 -10 52 -22 75 -33 64
-40 288 -35 1077 3 627 5 689 22 730 9 25 20 74 24 110 4 36 17 84 29 107 19
36 22 58 22 147 0 145 17 246 57 345 29 70 36 102 43 202 9 111 12 122 50 195
36 66 42 88 49 168 10 102 18 129 54 172 29 34 47 92 47 151 0 55 13 87 55
135 27 32 35 52 40 97 11 96 16 111 56 157 40 46 44 57 53 133 3 30 14 53 34
75 46 49 62 78 62 113 0 44 12 72 54 122 22 26 39 58 42 81 4 26 21 57 50 90
44 52 48 60 58 121 4 23 20 49 46 74 24 24 45 55 51 80 6 22 24 54 40 72 15
18 40 57 55 87 14 29 41 67 59 84 17 17 38 46 45 64 8 18 27 48 43 67 16 19
37 52 47 75 10 23 39 61 64 85 25 24 46 50 46 58 0 8 20 34 45 60 25 25 51 55
57 68 23 42 164 216 248 307 70 77 480 486 558 558 100 92 155 136 197 158 22
11 51 32 65 47 14 15 42 36 62 46 21 11 48 33 60 49 12 17 41 42 65 56 23 13
47 33 53 44 6 11 42 38 80 60 38 22 72 45 75 50 4 6 27 21 53 35 26 13 65 40
87 60 22 21 58 45 80 55 22 10 57 31 78 48 21 17 51 34 67 37 16 4 52 26 79
51 35 31 62 47 99 54 34 8 65 24 100 55 33 28 65 45 90 50 24 4 59 23 93 51
42 34 62 44 91 44 51 0 77 12 132 59 34 29 56 41 79 41 37 0 97 27 145 63 22
16 59 30 103 38 53 9 86 23 136 56 57 37 73 43 120 43 55 0 117 24 142 54 19
22 105 46 166 46 35 0 65 8 95 24 115 63 132 68 242 77 97 7 116 11 171 42 68
37 163 57 273 57 77 0 220 31 284 62 55 26 167 37 407 38 153 0 179 3 225 21
43 18 85 23 223 30 94 4 199 15 235 23 94 22 381 22 475 -1 50 -13 118 -18
235 -19 157 -1 168 -2 217 -28 51 -25 56 -26 250 -26 259 0 336 -10 448 -55
80 -32 105 -37 220 -45 174 -12 199 -17 273 -58 54 -30 76 -35 162 -42 90 -7
106 -12 175 -49 62 -34 89 -43 153 -49 67 -7 89 -14 148 -49 53 -32 87 -44
143 -52 59 -9 81 -18 115 -46 48 -39 85 -55 127 -55 37 0 62 -12 113 -57 22
-18 49 -33 61 -33 41 0 129 -32 164 -60 20 -15 53 -33 73 -40 21 -6 62 -31 91
-56 30 -24 63 -44 75 -44 37 0 76 -20 119 -62 30 -30 53 -43 88 -49 34 -6 60
-20 92 -50 24 -22 60 -47 78 -55 19 -8 49 -27 67 -42 18 -16 55 -36 81 -46 27
-10 57 -31 70 -48 12 -16 42 -42 67 -58 25 -15 59 -40 75 -55 17 -15 50 -37
75 -50 25 -13 54 -33 65 -45 11 -12 33 -29 50 -38 32 -16 196 -162 280 -248
28 -29 64 -59 80 -67 17 -8 114 -98 216 -201 166 -166 215 -206 251 -206 6 0
59 47 117 104 58 57 120 111 137 119 17 9 197 182 401 385 203 204 390 382
414 398 24 15 49 34 55 43 11 15 318 325 375 378 137 128 166 177 147 251 -11
40 -444 479 -504 510 -22 11 -68 50 -104 87 -36 37 -85 81 -110 97 -25 17 -66
52 -91 77 -87 87 -198 179 -263 219 -15 9 -41 26 -56 37 -15 11 -47 34 -70 50
-24 17 -66 51 -94 77 -29 26 -69 54 -89 63 -20 8 -51 28 -69 43 -18 16 -49 35
-68 42 -19 8 -58 35 -86 61 -34 30 -64 49 -90 53 -22 5 -54 22 -76 42 -20 18
-61 45 -90 60 -29 15 -66 37 -81 50 -15 13 -46 28 -68 34 -24 7 -62 31 -95 61
-46 41 -60 49 -93 49 -32 0 -49 8 -87 41 -52 45 -81 59 -124 59 -19 0 -44 13
-76 41 -54 46 -81 59 -128 59 -22 0 -48 11 -77 33 -56 43 -83 57 -108 57 -32
0 -114 30 -136 50 -34 30 -79 49 -144 59 -48 8 -72 18 -107 47 -42 34 -54 39
-140 50 -83 10 -101 17 -150 50 -48 33 -66 39 -149 50 -83 10 -101 17 -154 51
-55 38 -65 41 -157 47 -90 7 -105 11 -186 53 -86 45 -90 46 -210 53 -119 7
-177 20 -208 45 -45 38 -82 46 -228 51 -149 5 -203 14 -256 41 -77 40 -217 58
-517 67 -92 3 -127 9 -165 26 -34 14 -60 19 -84 15 -19 -3 -59 2 -90 11 -30 8
-72 20 -93 25 -41 10 -1521 17 -1822 9z"/>
<path d="M196865 46250 c-206 -5 -223 -6 -264 -28 -31 -17 -55 -23 -80 -19
-20 2 -72 -5 -116 -15 -56 -14 -156 -23 -330 -32 -167 -8 -258 -17 -274 -25
-14 -8 -50 -20 -80 -28 -31 -8 -79 -20 -107 -27 -28 -8 -114 -17 -190 -21
-143 -7 -159 -11 -266 -71 -15 -8 -85 -20 -160 -28 -132 -13 -169 -24 -229
-68 -18 -14 -54 -22 -124 -29 -120 -11 -123 -12 -198 -60 -47 -31 -70 -39
-106 -39 -73 -1 -131 -18 -181 -55 -42 -31 -73 -42 -176 -61 -12 -2 -44 -19
-71 -38 -27 -18 -64 -37 -83 -40 -68 -14 -128 -37 -145 -56 -10 -11 -54 -34
-99 -51 -44 -17 -91 -40 -102 -51 -12 -10 -57 -33 -100 -50 -44 -16 -88 -38
-99 -48 -11 -10 -46 -30 -78 -44 -32 -14 -76 -41 -98 -60 -22 -19 -60 -39 -85
-45 -27 -7 -62 -27 -87 -50 -23 -21 -62 -48 -87 -61 -25 -12 -56 -33 -70 -46
-14 -12 -41 -30 -60 -38 -20 -8 -53 -31 -73 -50 -21 -20 -58 -50 -83 -67 -24
-16 -56 -41 -72 -56 -15 -14 -43 -33 -63 -43 -19 -10 -42 -26 -50 -36 -8 -9
-38 -35 -67 -56 -51 -38 -441 -424 -524 -518 -21 -25 -59 -67 -82 -95 -24 -27
-51 -67 -59 -87 -9 -20 -27 -47 -42 -60 -14 -12 -36 -39 -47 -58 -12 -19 -43
-58 -70 -87 -26 -28 -48 -61 -48 -71 0 -11 -16 -39 -35 -62 -19 -23 -44 -62
-55 -87 -11 -25 -37 -65 -59 -88 -25 -27 -40 -54 -44 -81 -4 -27 -21 -57 -51
-91 -34 -41 -46 -63 -51 -102 -5 -35 -19 -67 -46 -105 -27 -38 -43 -73 -50
-112 -14 -75 -23 -98 -59 -142 -21 -27 -33 -58 -43 -109 -9 -49 -26 -92 -51
-133 -33 -53 -39 -72 -46 -154 -12 -121 -23 -168 -48 -203 -38 -54 -50 -105
-56 -237 -6 -128 -24 -236 -72 -428 -24 -96 -24 -101 -24 -597 l0 -501 26 -67
c17 -45 24 -79 20 -101 -3 -21 4 -55 19 -95 19 -51 25 -93 32 -228 9 -163 9
-166 41 -216 34 -53 62 -155 62 -229 0 -23 10 -60 23 -85 13 -24 33 -62 45
-84 12 -22 27 -72 33 -112 8 -56 18 -82 44 -116 30 -40 45 -75 60 -149 3 -15
23 -47 45 -73 24 -27 42 -60 45 -83 11 -63 16 -74 54 -116 21 -23 45 -62 55
-89 10 -26 33 -66 52 -88 19 -23 34 -47 34 -55 0 -8 25 -41 55 -74 30 -33 55
-65 55 -70 0 -6 20 -32 44 -58 24 -26 47 -58 51 -70 4 -13 29 -49 57 -80 27
-32 71 -81 96 -110 78 -88 288 -299 310 -311 23 -12 97 -73 152 -125 19 -19
55 -46 80 -61 46 -29 103 -75 195 -158 29 -26 69 -53 89 -58 20 -6 51 -23 69
-38 17 -16 52 -39 77 -51 25 -12 61 -37 81 -55 21 -19 61 -40 93 -49 40 -12
62 -25 81 -50 26 -35 54 -50 115 -62 19 -4 54 -24 78 -45 24 -21 65 -45 92
-54 27 -9 54 -23 62 -32 18 -23 105 -59 159 -67 31 -5 54 -15 70 -32 30 -32
91 -64 122 -64 12 0 51 -18 86 -41 42 -27 80 -43 119 -49 31 -6 69 -19 84 -30
16 -11 40 -29 56 -40 16 -12 60 -26 109 -33 65 -11 92 -21 136 -51 43 -30 68
-39 128 -47 77 -11 131 -32 188 -74 24 -18 47 -25 77 -25 77 0 147 -20 194
-56 49 -38 49 -38 172 -52 77 -8 94 -14 142 -47 48 -33 64 -38 143 -46 94 -10
153 -28 219 -65 36 -21 161 -43 250 -44 11 0 49 -19 83 -42 62 -41 66 -42 170
-49 129 -8 149 -13 229 -57 56 -31 74 -35 175 -43 128 -10 158 -17 213 -51 58
-37 100 -48 175 -48 95 0 162 -16 238 -58 62 -35 71 -37 193 -43 122 -7 130
-9 212 -48 77 -38 95 -43 203 -52 107 -9 126 -14 198 -49 73 -36 91 -41 200
-50 108 -9 127 -14 200 -50 67 -33 96 -41 180 -49 117 -12 168 -25 186 -47 28
-33 84 -51 176 -56 84 -5 99 -9 152 -41 72 -43 75 -44 178 -56 77 -10 101 -19
207 -78 12 -6 56 -16 98 -21 66 -9 85 -16 129 -48 43 -31 65 -39 137 -51 55
-8 96 -21 112 -33 42 -33 94 -58 135 -65 76 -12 84 -15 130 -55 25 -22 56 -40
69 -40 40 0 124 -30 154 -55 16 -13 54 -33 84 -45 31 -11 76 -36 100 -55 25
-18 64 -38 87 -45 27 -7 60 -28 90 -56 25 -25 56 -47 69 -49 12 -3 34 -8 49
-11 14 -3 38 -17 52 -32 14 -15 42 -39 61 -52 19 -13 58 -45 87 -72 28 -26 56
-48 62 -48 5 0 30 -17 55 -37 24 -21 77 -65 118 -98 107 -87 127 -106 150
-145 12 -19 39 -54 60 -77 21 -24 38 -47 38 -52 0 -5 23 -33 50 -62 28 -29 50
-58 50 -65 0 -8 23 -39 50 -69 37 -41 50 -63 50 -86 0 -36 20 -76 50 -104 29
-26 50 -68 50 -100 0 -30 20 -72 61 -130 26 -36 30 -53 38 -156 10 -115 21
-166 67 -306 22 -66 24 -87 24 -274 0 -225 -10 -301 -51 -405 -23 -56 -31 -98
-38 -195 -10 -132 -18 -166 -47 -189 -27 -23 -54 -91 -54 -138 0 -49 -9 -70
-55 -127 -20 -24 -36 -57 -40 -84 -5 -33 -19 -57 -52 -92 -24 -26 -49 -64 -54
-83 -6 -20 -23 -51 -38 -69 -16 -17 -36 -48 -46 -67 -9 -19 -37 -55 -61 -80
-198 -205 -368 -372 -400 -395 -21 -16 -57 -46 -79 -66 -22 -21 -58 -46 -80
-55 -22 -9 -55 -29 -73 -45 -18 -16 -48 -35 -67 -43 -18 -8 -53 -32 -77 -54
-30 -28 -56 -42 -86 -47 -30 -5 -61 -21 -99 -52 -41 -33 -67 -46 -104 -52 -32
-5 -63 -19 -89 -39 -47 -38 -71 -49 -130 -57 -25 -3 -63 -16 -85 -30 -96 -58
-120 -67 -190 -74 -60 -6 -81 -13 -126 -43 -47 -32 -66 -39 -144 -48 -139 -17
-186 -28 -256 -61 -56 -27 -80 -32 -199 -40 -149 -11 -293 -40 -355 -71 -49
-26 -196 -37 -483 -38 -185 0 -195 -1 -242 -25 l-49 -25 -641 0 -640 0 -48 24
c-46 23 -56 24 -349 29 -294 6 -303 7 -366 31 -35 14 -77 26 -93 26 -16 0 -53
9 -82 20 -38 15 -77 20 -145 21 -149 0 -240 13 -299 42 -85 42 -137 57 -193
57 -110 0 -216 21 -279 56 -52 28 -80 35 -190 49 -140 17 -134 15 -188 58 -33
26 -49 31 -134 39 -54 5 -107 14 -119 21 -12 6 -47 27 -76 44 -34 21 -67 33
-90 33 -74 0 -143 20 -174 49 -42 40 -67 51 -119 51 -56 0 -88 12 -138 51 -28
23 -63 37 -126 51 -48 10 -96 27 -107 37 -29 27 -95 57 -139 64 -21 3 -66 24
-100 46 -33 22 -79 43 -101 47 -50 8 -62 14 -114 58 -24 20 -58 38 -79 42 -62
10 -73 15 -111 50 -41 36 -79 54 -117 54 -15 0 -45 19 -79 50 -41 37 -63 50
-86 50 -40 0 -66 15 -109 60 -23 25 -50 42 -80 50 -25 6 -61 24 -80 39 -20 16
-53 37 -75 49 -22 11 -53 35 -70 52 -16 18 -53 43 -81 55 -27 13 -63 34 -80
48 -16 13 -45 32 -64 42 -19 10 -58 38 -86 64 -63 56 -119 96 -191 136 -31 17
-63 40 -72 51 -9 11 -34 33 -56 49 -22 17 -76 67 -121 113 -44 45 -85 82 -91
82 -19 0 -40 -36 -47 -79 -5 -32 -18 -56 -46 -87 -28 -31 -40 -54 -45 -88 -4
-26 -18 -61 -31 -79 -39 -54 -64 -105 -64 -131 0 -39 -17 -75 -59 -122 -29
-34 -40 -56 -45 -93 -5 -39 -16 -61 -51 -102 -36 -42 -45 -60 -45 -90 0 -52
-15 -88 -55 -129 -24 -26 -36 -51 -45 -94 -9 -45 -21 -68 -51 -101 -31 -33
-42 -55 -50 -100 -14 -74 -24 -101 -53 -136 -13 -16 -34 -59 -47 -96 -12 -37
-34 -82 -50 -100 -15 -18 -35 -58 -44 -90 -19 -65 -27 -83 -68 -141 -16 -22
-35 -70 -44 -106 -14 -64 -14 -68 8 -112 15 -32 38 -57 73 -80 28 -19 85 -63
126 -99 41 -36 95 -80 119 -98 24 -17 57 -46 74 -64 16 -17 50 -41 76 -53 25
-12 57 -32 71 -44 14 -13 45 -34 70 -49 25 -14 58 -40 75 -58 16 -17 57 -44
91 -59 34 -16 65 -33 69 -39 3 -6 32 -24 63 -40 31 -16 68 -41 82 -56 29 -32
71 -55 98 -55 11 0 42 -18 68 -40 27 -22 69 -48 94 -57 25 -9 61 -29 81 -45
20 -15 71 -41 114 -57 43 -17 88 -39 99 -50 12 -11 52 -31 89 -45 37 -14 87
-39 110 -56 24 -17 71 -37 112 -46 46 -11 80 -26 100 -44 42 -38 88 -60 128
-60 23 0 47 -10 73 -31 55 -44 88 -59 127 -59 46 0 110 -23 152 -55 38 -30
112 -55 160 -55 21 0 53 -14 91 -40 51 -34 72 -42 144 -51 68 -9 98 -19 150
-50 51 -29 83 -40 150 -50 58 -8 111 -24 167 -51 63 -29 107 -41 186 -53 86
-12 118 -21 181 -55 68 -35 85 -40 145 -40 101 0 174 -17 254 -59 69 -36 77
-38 198 -44 144 -6 234 -26 292 -65 38 -25 49 -27 196 -34 238 -10 326 -25
410 -69 52 -28 59 -29 205 -30 214 0 421 -14 491 -33 32 -9 85 -16 116 -16 33
0 84 -9 121 -22 63 -22 63 -22 947 -25 l885 -4 73 26 c55 19 93 25 156 25 46
0 106 7 133 15 56 17 276 35 440 35 113 0 251 27 319 63 43 22 79 27 255 36
152 7 158 9 232 44 88 43 94 44 245 56 102 8 119 13 195 51 73 36 94 42 172
47 80 6 93 9 140 42 57 39 127 61 197 61 33 0 55 7 80 25 57 42 111 63 185 73
71 10 100 22 163 67 19 14 44 25 57 25 34 0 123 36 148 59 12 11 53 31 91 46
39 14 82 35 98 46 15 11 64 35 109 54 44 19 91 43 102 54 12 10 58 33 103 50
44 18 87 39 94 47 7 9 41 28 75 44 34 15 69 39 78 52 18 27 64 53 109 63 15 3
44 20 65 38 20 18 56 45 80 60 24 16 46 35 49 43 3 8 33 31 67 50 33 20 76 49
94 65 18 16 40 29 49 29 8 0 38 21 65 48 62 59 135 127 182 170 20 19 36 38
36 43 0 5 24 24 53 43 48 31 137 120 285 284 31 35 78 84 105 109 26 25 47 52
47 59 0 7 18 27 41 45 23 18 49 51 59 73 9 23 27 50 40 61 12 11 33 40 45 65
13 25 38 59 55 75 18 17 43 53 55 80 13 28 37 63 54 79 17 17 34 45 37 64 4
20 25 55 51 84 49 55 63 84 63 129 0 20 12 43 40 72 43 47 60 83 60 126 0 18
15 45 45 80 33 39 45 61 45 85 0 56 25 131 58 172 27 34 35 55 46 131 11 74
20 99 49 142 39 56 43 71 53 196 8 111 26 181 61 245 33 59 31 38 48 440 2 41
11 95 20 120 14 39 16 102 16 461 0 365 -2 423 -17 475 -9 32 -18 88 -19 124
-13 341 -16 373 -46 427 -36 66 -56 150 -68 286 -8 90 -13 113 -34 140 -41 54
-55 91 -63 158 -8 79 -16 100 -53 147 -30 38 -51 97 -51 144 0 18 -13 42 -35
67 -39 43 -65 97 -65 136 0 16 -15 42 -39 68 -22 24 -49 68 -60 98 -12 31 -33
66 -47 80 -14 13 -34 43 -45 68 -10 24 -37 63 -58 86 -22 24 -48 60 -59 82
-11 21 -30 47 -42 58 -12 11 -38 44 -56 73 -19 28 -38 52 -44 52 -5 0 -18 17
-29 38 -10 20 -38 56 -62 78 -63 59 -131 133 -150 162 -9 13 -29 32 -44 42
-15 10 -72 60 -126 112 -113 107 -158 145 -214 180 -22 14 -49 35 -60 48 -11
12 -33 29 -49 37 -17 9 -53 37 -80 63 -28 26 -69 57 -92 68 -22 11 -47 28 -55
38 -8 9 -41 29 -74 44 -33 15 -73 42 -90 60 -16 18 -58 45 -91 60 -34 16 -65
33 -69 40 -4 7 -35 24 -69 40 -33 15 -81 44 -104 64 -26 21 -55 36 -70 36 -31
0 -71 21 -132 68 -24 17 -53 32 -66 32 -36 0 -70 16 -125 60 -30 24 -62 40
-77 40 -30 0 -114 39 -152 70 -14 11 -61 28 -105 37 -50 10 -89 25 -105 38
-49 44 -84 59 -147 66 -51 5 -75 14 -118 43 -42 29 -71 40 -135 52 -60 10 -99
24 -143 51 -45 27 -80 39 -142 49 -64 11 -94 21 -135 49 -57 39 -59 39 -176
53 -67 8 -92 16 -143 47 -55 34 -72 39 -172 51 -97 11 -118 17 -167 47 -79 47
-113 57 -202 57 -64 0 -84 4 -121 25 -98 56 -123 63 -239 73 -102 9 -124 14
-185 45 -81 40 -96 44 -231 56 -84 8 -112 15 -170 44 -80 40 -95 44 -229 56
-85 8 -113 15 -185 49 -76 36 -97 42 -200 51 -97 8 -131 16 -217 50 -69 28
-118 41 -150 41 -94 1 -174 18 -246 55 -62 31 -86 38 -177 46 -132 11 -134 12
-233 59 -68 32 -96 40 -167 45 -106 8 -110 9 -195 51 -55 27 -93 37 -183 49
-108 14 -126 20 -200 67 -23 14 -61 23 -120 29 -54 6 -102 17 -127 30 -22 12
-60 32 -85 45 -25 13 -63 24 -86 24 -52 0 -138 26 -155 46 -24 29 -84 51 -151
56 -47 4 -79 13 -110 32 -72 43 -125 66 -171 75 -24 4 -60 19 -78 33 -49 37
-88 55 -135 61 -26 3 -65 20 -101 45 -33 22 -77 44 -99 48 -48 8 -68 18 -119
60 -22 17 -60 37 -83 44 -24 6 -68 31 -98 55 -29 24 -71 49 -92 55 -21 5 -47
19 -58 31 -10 12 -39 33 -64 47 -25 14 -66 45 -91 68 -25 23 -59 49 -76 57
-16 9 -36 23 -43 32 -8 10 -37 32 -65 49 -73 47 -293 262 -317 310 -11 23 -38
60 -59 83 -22 24 -39 47 -39 53 0 6 -20 32 -45 59 -24 26 -52 65 -61 87 -9 21
-29 54 -45 71 -25 29 -59 115 -59 149 0 6 -15 34 -33 60 -44 64 -48 76 -57
164 -6 58 -17 93 -45 147 -49 92 -54 143 -54 543 -1 369 7 463 45 527 35 61
44 92 54 200 7 81 13 99 48 160 24 41 45 91 51 125 11 59 33 112 52 124 6 3
24 36 41 73 16 36 44 82 63 101 18 19 38 53 44 75 6 23 25 54 42 70 17 17 40
46 52 65 11 19 37 51 56 71 20 20 110 112 201 204 91 92 183 180 206 195 23
16 48 40 58 54 9 14 40 38 69 52 28 14 63 36 77 49 14 13 45 33 70 44 25 12
67 39 92 60 26 21 63 42 82 45 19 4 60 27 91 51 39 30 71 46 101 51 29 4 61
20 100 50 43 33 65 44 93 44 41 0 105 27 154 64 22 17 56 28 112 37 60 9 96
21 146 51 58 34 77 39 161 47 91 9 132 22 188 61 36 25 117 40 216 40 60 0
103 6 147 21 34 12 87 28 117 36 30 8 71 20 90 25 19 5 148 13 285 17 228 7
254 10 299 31 41 19 64 22 155 21 77 -1 120 3 156 16 43 14 105 17 442 20 376
4 396 3 470 -17 62 -17 101 -21 198 -19 113 2 123 0 169 -24 47 -26 54 -27
220 -27 234 -1 362 -13 411 -38 70 -35 166 -54 330 -63 158 -9 160 -10 235
-48 70 -36 87 -41 200 -51 112 -10 132 -15 205 -50 65 -32 96 -41 170 -48 88
-9 114 -18 219 -74 24 -13 69 -24 120 -29 95 -9 118 -16 170 -58 37 -30 54
-35 144 -45 28 -3 64 -18 99 -41 38 -25 78 -41 131 -52 53 -12 91 -27 123 -49
41 -30 76 -42 159 -58 14 -3 48 -23 77 -44 31 -24 68 -42 93 -46 47 -7 110
-37 129 -60 7 -8 50 -27 95 -41 47 -14 99 -38 120 -54 21 -17 59 -37 87 -46
27 -9 68 -32 90 -51 23 -19 61 -39 86 -45 24 -7 65 -29 91 -51 26 -21 69 -45
95 -53 27 -8 65 -29 85 -46 20 -18 64 -45 97 -60 33 -15 71 -38 83 -52 51 -55
127 -59 175 -11 24 23 37 63 52 156 4 24 21 55 45 83 42 48 46 60 53 137 3 35
13 57 42 93 31 38 40 59 51 122 8 42 20 85 29 97 57 78 67 99 74 149 4 30 15
66 25 78 9 13 28 39 41 57 13 19 27 55 30 80 9 76 24 119 50 150 29 34 43 69
56 136 5 28 23 68 44 97 27 35 39 65 46 111 11 66 24 94 67 140 20 22 28 46
38 114 12 81 16 90 54 129 52 53 52 88 0 121 -19 13 -49 34 -66 48 -16 13 -54
34 -83 45 -29 11 -68 35 -86 54 -19 19 -56 43 -82 53 -26 9 -59 27 -73 39 -14
12 -51 34 -84 49 -32 14 -76 42 -97 61 -22 20 -50 35 -63 35 -38 0 -74 17
-129 60 -27 22 -60 40 -73 40 -36 0 -73 18 -127 60 -27 22 -60 40 -73 40 -36
0 -73 18 -127 60 -27 22 -60 40 -73 40 -53 0 -125 23 -161 52 -49 39 -96 58
-143 58 -26 0 -55 12 -100 41 -50 32 -80 44 -148 55 -65 12 -96 23 -134 50
-55 37 -57 38 -172 54 -56 7 -89 17 -110 34 -55 41 -79 50 -177 61 -76 10
-115 21 -187 54 -77 36 -105 43 -189 50 -83 7 -111 15 -169 44 -88 44 -103 47
-254 56 -127 8 -137 11 -252 71 -30 16 -64 20 -185 25 -81 3 -174 12 -205 20
-32 8 -82 21 -111 29 -29 7 -64 19 -78 27 -16 8 -107 17 -274 25 -174 9 -274
18 -330 32 -44 10 -97 17 -117 14 -24 -3 -58 5 -102 22 l-65 26 -833 3 c-458
1 -932 0 -1053 -3z"/>
<path d="M64960 46040 c-20 -20 -20 -33 -20 -1123 0 -1058 1 -1105 18 -1121
17 -15 415 -16 5665 -16 3676 0 5655 -3 5671 -10 64 -24 50 -124 -30 -209 -78
-83 -154 -173 -154 -182 0 -5 -20 -32 -45 -61 -24 -29 -59 -71 -78 -93 -18
-22 -48 -61 -66 -88 -18 -26 -43 -54 -56 -63 -14 -9 -34 -32 -46 -53 -12 -20
-35 -47 -51 -59 -16 -13 -44 -48 -63 -78 -19 -30 -39 -54 -45 -54 -5 0 -21
-22 -34 -48 -13 -27 -32 -54 -41 -62 -9 -8 -30 -34 -47 -59 -17 -25 -50 -66
-74 -91 -78 -81 -140 -154 -163 -192 -12 -21 -27 -38 -31 -38 -5 0 -21 -21
-36 -47 -15 -27 -39 -61 -54 -78 -15 -16 -37 -46 -50 -65 -13 -19 -42 -54 -64
-76 -73 -74 -137 -150 -162 -193 -14 -22 -29 -41 -34 -41 -5 0 -25 -24 -45
-52 -57 -86 -166 -221 -249 -311 -21 -23 -50 -60 -64 -82 -14 -22 -33 -46 -44
-53 -10 -7 -25 -28 -35 -45 -15 -31 -42 -63 -160 -197 -29 -33 -53 -64 -53
-69 0 -6 -19 -30 -42 -54 -79 -82 -145 -162 -161 -192 -8 -16 -27 -41 -42 -55
-15 -14 -34 -38 -42 -55 -18 -35 -87 -117 -154 -184 -25 -25 -54 -60 -64 -77
-9 -16 -30 -39 -45 -49 -16 -11 -39 -37 -51 -60 -13 -22 -35 -52 -51 -67 -16
-14 -35 -41 -42 -60 -8 -18 -24 -42 -37 -53 -12 -11 -37 -43 -55 -72 -19 -28
-47 -61 -64 -73 -17 -12 -38 -36 -47 -53 -8 -18 -33 -47 -55 -66 -21 -18 -46
-47 -54 -63 -9 -17 -31 -46 -50 -65 -19 -18 -34 -40 -34 -49 0 -8 -17 -33 -38
-57 -21 -23 -49 -58 -62 -77 -13 -19 -41 -53 -62 -75 -95 -99 -148 -158 -148
-165 0 -5 -20 -32 -45 -61 -25 -29 -45 -59 -45 -66 0 -7 -23 -39 -50 -70 -28
-32 -76 -88 -108 -125 -31 -38 -78 -91 -104 -118 -27 -28 -48 -55 -48 -60 0
-5 -20 -32 -45 -60 -25 -28 -45 -55 -45 -61 0 -5 -17 -28 -38 -52 -21 -23 -53
-63 -70 -89 -18 -26 -40 -53 -50 -60 -10 -7 -28 -26 -40 -43 -12 -16 -40 -50
-62 -75 -22 -25 -64 -73 -95 -107 -30 -35 -55 -67 -55 -73 0 -5 -20 -32 -45
-60 -25 -28 -45 -55 -45 -60 0 -5 -25 -37 -55 -71 -30 -34 -55 -65 -55 -70 0
-4 -19 -27 -43 -51 -24 -24 -50 -52 -58 -64 -8 -11 -28 -31 -46 -44 -18 -13
-39 -37 -47 -54 -8 -17 -27 -42 -41 -56 -15 -14 -37 -45 -50 -70 -13 -25 -33
-54 -45 -65 -13 -11 -36 -39 -51 -63 -15 -24 -46 -62 -69 -85 -92 -94 -150
-160 -150 -171 0 -7 -14 -25 -31 -42 -17 -16 -41 -50 -54 -75 -13 -25 -31 -52
-41 -60 -9 -8 -30 -32 -46 -54 -28 -40 -76 -95 -175 -200 -29 -31 -53 -62 -53
-69 0 -7 -14 -25 -31 -42 -17 -16 -41 -49 -54 -74 -12 -25 -33 -54 -45 -65
-12 -11 -35 -38 -50 -60 -26 -38 -46 -60 -167 -189 -29 -31 -53 -62 -53 -69 0
-7 -12 -24 -26 -38 -15 -13 -41 -47 -59 -74 -18 -28 -41 -57 -50 -65 -9 -8
-32 -38 -51 -67 -18 -29 -43 -58 -54 -65 -12 -7 -31 -29 -42 -48 -12 -19 -40
-53 -62 -76 -59 -59 -177 -206 -232 -289 -15 -22 -45 -61 -68 -86 -23 -26 -66
-77 -96 -114 -30 -37 -94 -110 -141 -163 -47 -54 -95 -115 -107 -138 -11 -22
-28 -47 -37 -54 -9 -8 -30 -34 -47 -59 -17 -25 -48 -64 -69 -86 -130 -134
-149 -156 -149 -165 0 -6 -17 -29 -39 -53 -21 -23 -48 -60 -59 -83 -11 -22
-28 -47 -37 -54 -9 -8 -30 -34 -47 -59 -17 -25 -50 -63 -74 -84 -24 -21 -44
-45 -44 -52 0 -8 -18 -29 -41 -47 -23 -18 -49 -49 -59 -68 -10 -19 -30 -46
-45 -60 -15 -14 -35 -41 -44 -61 -16 -36 -62 -93 -158 -198 -29 -32 -53 -63
-53 -69 0 -5 -18 -25 -40 -42 -23 -18 -49 -49 -59 -69 -11 -20 -31 -47 -46
-61 -15 -14 -34 -38 -42 -54 -8 -15 -32 -47 -52 -70 -21 -22 -47 -57 -59 -77
-12 -21 -33 -44 -47 -53 -13 -9 -35 -35 -49 -59 -14 -23 -39 -53 -56 -65 -16
-12 -37 -37 -46 -55 -18 -33 -72 -101 -136 -168 -21 -22 -45 -54 -54 -72 -9
-17 -37 -56 -63 -84 -25 -29 -68 -80 -96 -113 -27 -33 -71 -84 -96 -113 -26
-28 -54 -67 -63 -85 -9 -18 -24 -36 -32 -39 -8 -3 -26 -26 -41 -52 -32 -55
-135 -175 -268 -313 -30 -31 -55 -61 -55 -67 0 -6 -20 -33 -45 -61 -25 -28
-45 -57 -45 -65 0 -7 -22 -40 -50 -71 -27 -31 -50 -61 -50 -66 0 -8 -39 -50
-154 -168 -24 -25 -51 -58 -59 -75 -8 -16 -27 -41 -42 -55 -15 -14 -33 -40
-41 -59 -8 -19 -31 -53 -52 -77 -20 -24 -64 -75 -97 -114 -33 -39 -84 -95
-112 -124 -29 -29 -53 -58 -53 -64 0 -6 -20 -34 -45 -62 -25 -28 -45 -55 -45
-61 0 -5 -17 -28 -38 -52 -22 -23 -50 -59 -64 -79 -13 -21 -36 -47 -51 -58
-15 -12 -34 -34 -41 -48 -8 -15 -36 -50 -63 -77 -26 -28 -56 -64 -65 -80 -26
-44 -127 -173 -235 -299 -29 -34 -74 -87 -100 -119 -27 -31 -69 -80 -95 -108
-27 -27 -48 -54 -48 -59 0 -4 -20 -32 -45 -61 -25 -29 -45 -58 -45 -64 0 -6
-21 -36 -48 -66 -26 -29 -59 -70 -74 -89 -14 -19 -62 -72 -107 -118 -44 -46
-81 -87 -81 -93 0 -5 -18 -29 -40 -52 -25 -28 -43 -59 -49 -88 -7 -28 -11
-349 -11 -886 0 -830 0 -843 20 -863 20 -20 28 -20 7723 -18 6828 3 7706 5
7726 18 l22 15 0 1098 c0 827 -3 1102 -12 1113 -6 8 -28 17 -48 20 -20 3
-2677 6 -5906 7 -4603 2 -5875 5 -5891 14 -37 21 -37 43 0 97 18 28 41 65 49
81 8 17 27 41 42 55 15 14 33 40 41 59 8 19 31 53 52 77 20 24 64 75 97 114
33 39 84 95 113 125 28 30 52 61 52 68 0 7 14 26 31 43 17 16 40 47 51 69 11
22 37 59 57 82 20 23 63 74 96 113 33 39 84 95 113 125 28 30 52 61 52 68 0 7
14 26 31 43 17 16 40 47 51 69 12 22 39 62 62 88 92 108 158 185 202 232 26
28 56 64 68 82 42 63 82 116 123 164 24 27 49 62 57 77 8 15 28 37 45 50 17
12 38 37 47 54 9 17 38 53 65 79 27 26 49 54 49 61 0 8 14 27 31 44 17 16 40
45 51 64 12 19 35 51 53 70 18 19 42 52 54 73 13 20 31 42 42 47 10 6 33 32
51 58 18 26 45 58 61 71 15 13 34 36 43 52 14 28 71 99 133 165 16 18 42 51
57 75 15 24 45 65 68 90 23 26 66 77 96 114 30 37 74 88 98 113 24 25 52 62
62 83 11 20 26 39 34 42 8 3 24 24 36 47 11 22 42 65 68 95 26 30 72 84 102
121 30 36 74 86 98 111 23 25 42 49 42 54 0 5 17 28 39 52 21 23 46 57 55 75
9 18 39 57 66 88 28 30 50 58 50 62 0 4 45 53 100 110 55 57 100 107 100 113
0 5 18 29 40 53 22 24 46 58 54 77 8 19 24 43 36 54 12 11 36 40 53 64 29 42
50 66 167 187 28 28 50 56 50 62 0 6 20 34 45 62 25 28 45 57 45 64 0 7 17 33
38 57 21 24 49 60 62 79 24 33 48 60 160 176 28 28 50 56 50 62 0 6 20 34 45
62 25 28 45 57 45 65 0 15 72 103 158 192 28 31 52 61 52 67 0 7 18 27 40 45
22 18 49 49 59 69 11 20 31 48 46 62 15 14 35 42 45 62 19 40 79 115 145 182
22 23 49 55 59 71 11 17 34 43 53 58 18 16 41 43 50 60 8 18 33 51 54 74 22
24 39 49 39 57 0 16 76 109 151 186 26 26 50 56 53 67 4 11 24 34 46 52 22 18
49 49 59 69 11 20 31 48 46 62 15 14 35 42 46 62 10 20 27 43 37 50 10 7 29
29 42 48 23 35 54 72 170 202 33 37 60 72 60 78 0 6 17 29 39 53 21 23 46 57
55 75 9 18 23 35 31 38 7 3 26 24 41 47 26 41 45 63 174 209 33 37 60 72 60
78 0 6 17 29 38 53 21 23 49 59 61 80 12 20 26 37 31 37 5 0 19 17 31 38 13
20 47 64 76 97 29 33 76 88 105 122 29 35 74 85 101 113 26 28 47 55 47 60 0
6 15 27 34 47 18 21 46 58 61 83 16 25 36 51 45 57 10 7 34 36 53 65 20 29 50
66 67 82 17 15 37 41 45 56 8 15 25 34 38 43 14 9 35 33 48 54 12 21 40 58 61
82 21 24 38 49 38 55 0 6 25 38 55 70 30 33 55 63 55 68 0 4 25 36 56 71 31
34 75 83 98 108 22 25 50 60 61 77 36 55 89 125 137 180 26 30 50 62 53 71 3
9 19 25 36 36 17 11 39 36 49 56 10 20 35 48 54 63 20 15 45 44 55 64 11 20
31 48 46 62 15 14 35 41 45 60 10 19 32 51 50 70 17 19 40 51 51 70 11 20 33
44 49 55 16 11 38 36 49 56 12 20 37 49 56 63 19 15 44 44 54 64 11 20 31 48
46 62 15 14 35 42 46 62 10 20 34 54 53 74 20 21 43 52 52 69 9 17 31 41 49
54 18 12 38 35 45 51 6 15 29 42 51 59 21 18 46 46 55 64 9 18 30 46 47 64 16
18 40 48 51 66 37 61 134 184 150 190 8 3 28 25 43 49 15 23 43 56 61 72 18
16 40 43 49 60 8 17 30 47 48 66 17 19 44 56 59 83 15 26 31 47 35 47 5 0 21
19 36 43 15 23 45 60 67 82 77 79 146 161 162 193 9 18 24 36 32 39 8 3 26 26
41 52 14 25 38 60 53 76 15 17 37 46 50 65 13 19 44 56 69 82 70 71 135 149
160 191 12 20 26 37 29 37 4 0 18 17 32 38 13 20 44 59 67 86 24 26 43 52 43
57 0 9 34 48 162 191 23 26 51 64 61 83 10 20 24 38 32 41 8 4 25 22 37 42 12
21 41 59 65 86 24 26 43 52 43 57 0 5 27 40 60 77 123 139 147 168 169 205 12
20 26 37 31 37 5 0 19 17 31 38 24 38 66 90 156 192 28 32 57 68 63 81 7 13
30 42 51 64 72 74 149 165 149 175 0 5 20 32 45 60 25 28 45 55 45 60 0 5 25
37 55 71 30 34 55 66 55 71 0 5 19 28 43 52 106 110 140 157 148 204 4 26 8
428 8 893 l1 846 -23 21 -23 22 -7432 0 c-7419 0 -7432 0 -7452 -20z"/>
<path d="M90496 46039 l-26 -20 0 -9234 0 -9234 22 -15 c20 -14 669 -16 6663
-16 4531 0 6652 3 6677 10 21 6 40 15 43 20 4 6 8 1909 5 2197 0 7 -13 19 -30
28 -26 14 -585 15 -5369 15 -3391 0 -5349 3 -5365 9 -14 6 -32 21 -41 34 -14
22 -15 313 -15 2963 0 1616 0 2944 0 2951 0 7 10 21 22 33 l22 20 4597 0
c4363 0 4598 1 4618 18 l22 17 0 1105 c0 1037 -1 1105 -17 1117 -14 11 -917
13 -4615 13 l-4598 0 -26 23 -26 22 1 2801 c0 1541 2 2809 6 2818 4 9 19 23
35 31 25 13 675 15 5210 15 4818 0 5184 1 5201 16 17 16 18 62 18 1121 0 1090
0 1103 -20 1123 -20 20 -33 20 -6504 20 l-6483 0 -27 -21z"/>
<path d="M114847 46042 c-16 -17 -17 -674 -17 -9255 0 -8383 1 -9237 16 -9251
14 -14 143 -16 1270 -16 1115 0 1258 2 1293 16 21 8 41 23 43 32 1 9 1 3086
-2 6837 -3 3751 -3 6826 -1 6832 1 7 20 18 40 24 57 17 102 -6 131 -67 12 -27
38 -66 56 -87 19 -20 34 -42 34 -49 0 -6 24 -35 53 -64 96 -96 133 -139 164
-184 17 -25 43 -56 58 -70 15 -14 35 -41 45 -61 10 -19 26 -42 36 -50 9 -7 28
-32 41 -54 14 -22 40 -56 59 -75 61 -63 144 -160 144 -168 0 -5 23 -33 51 -63
27 -30 58 -70 69 -89 10 -19 27 -44 39 -54 11 -10 32 -37 45 -60 13 -23 39
-55 58 -73 18 -18 58 -62 88 -98 30 -36 76 -89 101 -118 25 -28 60 -73 78 -99
18 -27 35 -48 39 -48 4 0 16 -15 27 -32 10 -18 38 -55 62 -82 24 -26 43 -53
43 -59 0 -6 23 -35 50 -66 83 -92 152 -174 205 -246 28 -37 69 -89 93 -116 23
-27 42 -54 42 -58 0 -9 63 -84 169 -201 100 -110 129 -146 146 -180 10 -19 35
-55 56 -79 22 -24 39 -50 39 -57 0 -7 20 -30 43 -51 24 -21 50 -49 57 -63 7
-14 33 -46 59 -71 68 -67 125 -139 148 -184 12 -22 31 -49 43 -60 12 -11 30
-36 41 -56 10 -20 36 -52 57 -70 21 -19 47 -48 56 -65 10 -16 31 -39 48 -50
16 -10 36 -32 45 -48 8 -15 32 -47 54 -71 21 -23 45 -57 53 -76 8 -19 29 -47
46 -64 17 -16 38 -44 45 -61 7 -17 30 -45 52 -62 21 -17 46 -46 56 -64 10 -18
31 -42 48 -53 17 -11 37 -32 45 -47 8 -15 34 -50 58 -77 24 -27 47 -60 51 -73
4 -13 25 -42 46 -65 22 -24 39 -48 39 -54 0 -6 24 -36 53 -66 115 -118 172
-186 244 -286 16 -21 47 -61 71 -88 23 -27 42 -54 42 -60 0 -6 20 -31 44 -57
84 -88 156 -172 156 -181 0 -4 16 -23 35 -42 20 -19 51 -59 70 -90 19 -30 44
-64 56 -74 11 -11 28 -33 36 -50 9 -16 33 -48 54 -70 67 -69 134 -148 163
-192 16 -24 32 -43 36 -43 4 0 27 -26 51 -57 23 -32 51 -64 61 -71 10 -7 27
-30 37 -50 11 -20 31 -48 46 -62 15 -14 35 -41 45 -61 11 -20 34 -49 52 -65
18 -16 45 -49 61 -72 15 -23 36 -48 48 -55 11 -6 30 -28 41 -47 12 -19 38 -54
59 -76 20 -23 44 -55 52 -70 8 -16 27 -40 42 -54 15 -14 35 -41 45 -61 11 -20
34 -49 52 -65 19 -16 43 -45 55 -64 12 -19 40 -52 62 -73 23 -21 41 -43 41
-48 0 -4 20 -31 45 -59 24 -28 51 -63 59 -78 8 -15 26 -38 41 -52 15 -14 36
-42 46 -62 11 -21 33 -48 50 -60 17 -13 37 -35 45 -50 8 -15 35 -49 61 -76 75
-78 128 -144 151 -187 11 -22 32 -51 47 -65 15 -14 35 -41 46 -61 10 -20 36
-51 59 -69 22 -17 40 -38 40 -45 0 -7 24 -38 53 -68 81 -85 132 -148 155 -192
11 -22 32 -51 47 -65 15 -14 35 -41 45 -60 10 -19 36 -50 59 -68 23 -18 41
-39 41 -47 0 -8 20 -30 44 -51 24 -20 53 -53 64 -73 11 -20 33 -47 47 -61 15
-14 37 -45 50 -70 13 -25 35 -56 50 -70 15 -14 35 -41 45 -60 10 -19 36 -50
59 -68 23 -18 41 -39 41 -47 0 -8 20 -30 44 -51 24 -20 53 -53 64 -73 11 -20
33 -47 47 -61 15 -14 36 -43 47 -65 11 -22 38 -59 59 -82 22 -24 39 -47 39
-52 0 -6 37 -47 81 -93 45 -46 93 -99 107 -118 15 -19 45 -56 68 -81 23 -25
52 -65 64 -88 11 -23 28 -45 36 -48 8 -3 23 -22 34 -42 10 -20 38 -57 62 -82
23 -26 68 -77 98 -114 30 -37 74 -88 96 -114 23 -25 48 -60 57 -76 8 -17 31
-47 51 -68 20 -21 36 -43 36 -48 0 -9 61 -81 155 -184 25 -27 59 -69 75 -92
17 -24 34 -43 39 -43 5 0 20 -17 32 -37 13 -20 41 -58 64 -84 40 -48 72 -90
132 -177 18 -26 45 -58 61 -72 16 -14 39 -42 51 -63 13 -21 34 -45 47 -54 13
-8 34 -31 46 -51 12 -20 41 -58 65 -84 24 -27 43 -53 43 -58 0 -5 20 -32 45
-60 25 -28 45 -56 45 -62 0 -6 20 -31 44 -57 115 -119 266 -298 266 -315 0 -7
20 -36 45 -65 25 -29 45 -57 45 -62 0 -5 24 -34 53 -64 28 -30 78 -85 109
-122 32 -37 78 -92 103 -121 25 -29 45 -59 45 -68 0 -8 17 -33 38 -57 21 -23
48 -58 60 -77 11 -19 37 -48 57 -63 19 -15 35 -34 35 -42 0 -8 21 -31 46 -52
25 -21 52 -50 60 -65 8 -15 35 -50 59 -78 25 -28 45 -57 45 -66 0 -8 17 -33
38 -57 21 -23 46 -55 57 -72 10 -16 36 -48 57 -70 21 -22 63 -65 93 -97 30
-31 55 -60 55 -66 0 -5 23 -35 50 -66 28 -31 50 -64 50 -71 0 -8 20 -37 45
-65 25 -28 45 -55 45 -59 0 -9 68 -84 151 -169 23 -23 52 -57 63 -76 20 -31
40 -57 144 -177 23 -27 42 -54 42 -60 0 -5 19 -31 43 -57 24 -26 50 -57 58
-69 8 -12 42 -51 76 -87 l61 -66 1049 0 c933 0 1051 2 1071 16 l22 15 0 9233
0 9233 -23 21 -24 22 -1259 -2 c-1185 -3 -1261 -4 -1292 -21 l-32 -18 0 -6806
c0 -6096 -1 -6809 -15 -6830 -12 -18 -24 -23 -61 -23 -48 0 -45 -2 -132 102
-89 107 -167 200 -214 254 -27 30 -48 59 -48 64 0 5 -21 34 -47 64 -105 120
-131 152 -147 183 -9 18 -30 43 -46 55 -17 12 -42 41 -56 65 -13 23 -33 47
-44 53 -11 6 -38 36 -60 68 -56 79 -102 140 -143 187 -19 22 -42 55 -51 72 -9
18 -30 43 -46 55 -17 12 -42 41 -56 65 -13 23 -33 47 -44 53 -11 6 -38 36 -60
68 -56 79 -102 140 -143 187 -19 22 -41 54 -50 70 -8 17 -33 45 -56 63 -23 18
-41 39 -41 46 0 8 -17 29 -37 48 -21 18 -54 56 -75 83 -20 28 -46 59 -58 70
-12 11 -28 35 -36 55 -8 19 -30 51 -48 70 -18 19 -41 49 -51 65 -10 17 -33 46
-51 65 -19 19 -55 58 -82 86 -26 27 -58 66 -69 85 -12 19 -34 46 -48 59 -15
14 -36 43 -47 65 -11 22 -38 59 -59 82 -22 24 -39 47 -39 53 0 9 -29 41 -149
165 -21 22 -50 58 -64 80 -13 22 -34 49 -47 60 -12 11 -31 38 -42 60 -11 22
-38 59 -59 82 -22 24 -39 47 -39 52 0 8 -54 68 -148 166 -22 22 -53 61 -70 86
-17 25 -38 51 -47 59 -9 7 -26 32 -37 54 -11 23 -38 60 -59 83 -22 24 -39 47
-39 52 0 5 -24 35 -52 65 -117 123 -258 285 -258 297 0 4 -18 29 -40 54 -22
25 -40 50 -40 56 0 5 -25 37 -55 72 -113 127 -135 153 -152 177 -9 14 -38 49
-65 78 -26 30 -48 57 -48 62 0 5 -18 30 -40 55 -22 25 -40 50 -40 56 0 8 -36
52 -150 179 -23 25 -51 60 -64 77 -13 18 -35 42 -49 53 -14 11 -36 37 -48 58
-12 20 -39 56 -58 78 -20 23 -49 61 -66 84 -16 23 -46 64 -65 91 -19 27 -45
56 -58 65 -13 9 -34 34 -49 56 -14 23 -38 52 -54 65 -15 13 -38 41 -50 61 -13
20 -39 56 -58 78 -20 23 -49 61 -66 84 -66 93 -102 138 -135 173 -19 21 -53
57 -76 80 -22 24 -54 63 -71 88 -17 24 -41 53 -53 64 -12 11 -31 38 -42 60
-12 22 -36 57 -54 78 -19 20 -34 41 -34 46 0 8 -51 65 -148 166 -21 22 -49 56
-62 75 -13 19 -41 54 -62 77 -21 24 -38 49 -38 56 0 8 -17 34 -38 58 -21 24
-43 52 -49 62 -10 20 -79 98 -149 170 -22 23 -51 58 -64 77 -13 19 -41 54 -62
77 -21 24 -38 49 -38 57 0 9 -15 31 -34 49 -19 19 -41 48 -50 65 -8 16 -33 45
-54 63 -22 19 -47 48 -55 66 -9 17 -31 41 -47 53 -17 12 -43 41 -57 64 -14 22
-43 60 -64 83 -22 24 -39 49 -39 57 0 9 -15 31 -34 49 -19 19 -41 48 -50 65
-8 16 -33 45 -54 63 -22 19 -47 48 -55 66 -9 17 -31 41 -47 53 -17 12 -43 41
-57 64 -25 39 -39 57 -148 184 -25 29 -45 57 -45 62 0 10 -68 90 -143 170 -18
19 -44 51 -57 70 -13 19 -43 56 -67 82 -24 26 -43 52 -43 57 0 6 -20 33 -45
61 -25 28 -45 55 -45 60 0 10 -77 101 -149 175 -21 22 -44 50 -50 63 -7 13
-35 48 -62 78 -27 30 -49 59 -49 64 0 9 -34 50 -130 156 -19 22 -42 51 -50 66
-14 25 -29 42 -160 190 -33 37 -60 72 -60 77 0 5 -19 31 -43 57 -24 27 -53 66
-66 87 -12 20 -27 37 -31 37 -5 0 -20 19 -34 43 -14 23 -44 62 -66 87 -96 107
-139 158 -167 200 -17 25 -40 54 -52 64 -11 10 -32 39 -46 62 -14 24 -30 44
-35 44 -5 0 -21 20 -35 43 -14 24 -43 60 -65 81 -22 20 -40 41 -40 46 0 6 -24
34 -52 63 -49 49 -91 102 -143 179 -11 16 -37 50 -58 74 -20 25 -44 58 -52 73
-8 16 -30 42 -49 59 -19 16 -42 44 -50 61 -9 16 -31 42 -50 56 -19 14 -46 45
-61 68 -16 23 -39 53 -53 67 -13 14 -32 41 -42 60 -10 19 -34 52 -54 74 -20
21 -36 44 -36 52 0 7 -22 32 -50 56 -27 24 -50 49 -50 55 0 7 -18 30 -41 50
-22 21 -58 64 -80 96 -22 31 -44 57 -49 57 -5 0 -21 21 -34 48 -13 26 -36 58
-51 72 -15 14 -35 41 -46 61 -10 20 -36 51 -59 69 -22 17 -40 38 -40 46 0 7
-20 33 -45 56 -25 24 -59 64 -76 90 -16 25 -36 49 -44 52 -8 3 -24 24 -36 48
-12 24 -39 62 -60 85 -22 24 -39 48 -39 55 0 7 -23 36 -52 64 -78 75 -130 134
-163 182 -16 24 -36 49 -45 55 -9 7 -33 37 -52 68 -20 31 -41 60 -48 64 -6 4
-22 25 -37 48 -14 23 -40 58 -59 77 -71 76 -131 147 -157 188 -16 24 -34 45
-42 49 -8 3 -31 31 -50 63 -19 32 -42 64 -51 71 -9 8 -28 32 -41 54 -14 22
-39 54 -57 72 -17 17 -56 61 -86 98 -30 37 -87 100 -126 141 l-70 74 -1051 0
c-1004 0 -1051 -1 -1066 -18z"/>
<path d="M140367 46045 c-21 -7 -41 -15 -43 -18 -3 -2 -5 -501 -5 -1108 l-1
-1104 34 -17 c31 -17 202 -18 3145 -18 l3112 0 20 -26 21 -27 0 -8087 c0
-7822 1 -8087 18 -8103 17 -16 119 -17 1269 -17 l1250 0 27 21 26 21 0 8074
c0 6094 3 8079 11 8093 31 49 -166 46 3195 51 2642 4 3144 7 3157 19 16 12 17
103 17 1116 l0 1104 -26 20 -27 21 -7581 0 c-6376 -1 -7587 -3 -7619 -15z"/>
<path d="M165114 46049 c-17 -5 -37 -15 -43 -23 -8 -10 -11 -1442 -11 -5634 0
-5201 1 -5623 17 -5663 11 -30 17 -83 19 -169 2 -69 6 -240 10 -380 l6 -255
29 -55 c16 -30 29 -71 29 -90 0 -19 5 -51 11 -70 6 -19 16 -120 24 -225 10
-144 18 -202 33 -240 45 -110 62 -187 68 -303 7 -115 16 -150 54 -199 21 -27
38 -108 49 -236 8 -89 11 -101 40 -138 41 -51 48 -73 60 -193 9 -89 13 -103
42 -139 39 -49 58 -98 59 -154 0 -54 12 -83 50 -127 25 -28 34 -51 46 -116 11
-66 21 -92 53 -136 31 -43 41 -67 46 -114 6 -50 14 -70 51 -117 24 -31 44 -64
44 -72 0 -39 23 -89 55 -124 19 -21 38 -50 41 -65 18 -80 27 -100 59 -135 19
-21 38 -50 41 -65 12 -55 16 -63 59 -113 29 -34 46 -65 50 -92 5 -28 20 -54
50 -86 23 -25 49 -64 56 -85 8 -21 29 -55 47 -75 18 -19 37 -51 42 -71 5 -20
26 -51 46 -70 20 -19 52 -59 71 -88 20 -30 42 -56 49 -59 8 -3 24 -28 38 -57
13 -28 34 -60 46 -71 12 -11 33 -39 47 -63 14 -23 40 -55 57 -70 18 -15 41
-41 50 -58 10 -16 31 -39 47 -50 16 -10 41 -36 55 -57 37 -56 470 -491 530
-532 28 -19 56 -45 63 -58 14 -25 57 -60 239 -199 24 -18 62 -49 85 -69 23
-20 65 -49 92 -64 28 -16 68 -45 90 -66 22 -20 58 -46 81 -57 22 -11 47 -28
55 -38 7 -9 33 -25 58 -36 24 -10 65 -38 92 -62 30 -27 65 -48 92 -55 25 -6
65 -28 91 -49 25 -21 68 -46 95 -56 27 -9 57 -26 66 -36 10 -11 54 -34 99 -51
44 -17 93 -41 107 -54 15 -12 61 -35 103 -50 41 -15 83 -36 92 -46 19 -21 114
-59 148 -59 13 0 38 -11 57 -25 53 -39 111 -65 147 -65 41 0 95 -22 133 -54
35 -30 87 -46 149 -46 44 0 106 -25 176 -70 21 -14 68 -25 145 -35 104 -14
118 -18 173 -55 53 -36 66 -40 120 -40 99 0 184 -19 263 -57 70 -34 81 -36
216 -44 166 -10 201 -15 242 -37 76 -40 157 -53 395 -63 176 -8 253 -15 306
-30 41 -11 102 -19 147 -19 62 0 85 -5 123 -25 l47 -25 854 0 854 0 49 25 c39
20 64 25 120 25 39 0 105 9 148 19 57 15 139 23 312 30 241 10 293 19 389 63
33 16 77 23 175 30 175 12 237 24 304 58 62 32 151 50 248 50 49 0 68 5 95 25
66 47 90 56 201 70 101 14 117 19 174 55 51 34 74 42 136 49 75 8 124 27 147
55 15 18 102 46 143 46 32 0 102 32 134 61 11 10 44 23 72 29 61 11 87 23 122
56 14 12 62 34 107 49 45 14 95 37 111 50 16 13 64 38 107 54 43 17 88 39 99
50 12 11 48 31 81 46 33 14 74 40 91 56 18 18 50 35 75 40 29 7 58 25 89 53
26 24 68 53 94 65 27 11 64 34 82 51 19 16 41 30 50 30 8 0 36 20 62 43 26 24
67 57 92 74 25 17 54 41 65 53 11 12 35 28 55 36 19 8 49 28 65 43 17 16 48
40 70 54 22 14 79 62 127 108 47 46 117 111 154 144 133 118 337 321 363 360
25 37 137 160 258 282 29 29 60 71 69 93 9 22 24 45 33 50 9 5 30 34 45 65 16
30 42 65 58 76 15 11 38 39 50 62 11 23 36 57 54 75 18 18 38 51 44 73 6 22
29 60 50 83 22 23 48 62 58 87 11 24 31 55 45 68 15 13 34 46 43 73 9 28 36
72 60 99 26 29 44 59 44 74 0 39 18 74 59 113 30 29 40 47 45 85 5 34 17 59
40 85 43 48 56 74 56 112 0 40 21 90 50 115 32 29 50 68 50 110 0 45 19 90 55
133 20 24 33 56 45 115 13 63 25 93 52 129 38 50 43 65 53 169 6 67 10 76 59
150 23 34 31 60 38 128 7 69 17 101 48 162 33 64 41 91 49 175 12 110 16 127
61 234 27 65 33 93 40 210 9 131 22 193 54 242 31 48 44 134 50 317 5 153 10
192 26 229 12 27 20 64 19 91 -1 32 6 62 23 96 l25 50 7 460 c7 423 9 464 27
504 19 43 19 141 19 5529 0 3780 -3 5489 -10 5497 -28 33 -93 35 -1288 35
-1136 0 -1190 -1 -1205 -18 -16 -17 -17 -431 -22 -5453 -3 -2989 -6 -5510 -8
-5604 -2 -124 -8 -185 -20 -224 -10 -32 -17 -88 -17 -133 0 -63 -5 -88 -24
-126 -23 -44 -24 -60 -30 -277 -7 -247 -16 -313 -61 -409 -24 -51 -29 -78 -36
-195 -10 -163 -10 -165 -59 -266 -33 -70 -39 -92 -44 -175 -5 -85 -10 -103
-45 -171 -31 -59 -42 -95 -50 -159 -8 -64 -17 -93 -38 -123 -58 -82 -63 -93
-63 -132 -1 -69 -19 -126 -55 -168 -25 -29 -38 -57 -46 -100 -9 -43 -22 -71
-44 -96 -41 -46 -51 -66 -60 -119 -5 -29 -20 -58 -46 -88 -34 -39 -59 -95 -59
-131 0 -7 -15 -30 -34 -50 -18 -21 -43 -61 -55 -89 -12 -28 -38 -66 -57 -85
-19 -19 -39 -51 -45 -74 -7 -23 -29 -60 -55 -87 -24 -26 -44 -52 -44 -57 0 -6
-25 -35 -55 -66 -30 -30 -55 -60 -55 -66 0 -11 -57 -80 -137 -166 -24 -25 -43
-50 -43 -56 0 -21 -275 -289 -321 -312 -25 -13 -52 -31 -59 -40 -8 -9 -38 -32
-66 -50 -29 -19 -58 -43 -64 -55 -6 -11 -29 -31 -50 -45 -22 -14 -54 -40 -71
-60 -18 -20 -51 -41 -79 -50 -26 -9 -56 -25 -66 -36 -11 -12 -41 -32 -67 -45
-26 -14 -65 -41 -87 -60 -24 -22 -59 -41 -90 -49 -28 -7 -67 -26 -86 -42 -51
-40 -95 -63 -125 -63 -26 0 -91 -41 -118 -73 -7 -9 -28 -17 -45 -17 -53 0
-101 -19 -145 -56 -37 -32 -52 -38 -119 -46 -115 -15 -115 -15 -171 -53 -54
-37 -119 -55 -200 -55 -34 0 -67 -11 -127 -41 -84 -42 -160 -58 -266 -59 -32
0 -81 -9 -110 -19 -183 -66 -289 -80 -604 -81 -142 0 -170 -3 -244 -25 l-84
-25 -444 0 -445 0 -61 24 c-57 22 -77 24 -326 29 -287 6 -342 13 -439 60 -57
27 -77 31 -206 38 -147 9 -196 21 -277 69 -26 15 -65 24 -131 30 -109 11 -129
17 -198 65 -28 19 -61 36 -73 37 -11 1 -28 2 -36 4 -8 1 -27 2 -41 3 -15 1
-48 19 -75 40 -35 28 -65 42 -104 49 -73 14 -110 29 -140 56 -14 13 -54 33
-90 46 -36 13 -79 33 -96 46 -16 12 -61 36 -99 53 -38 18 -79 40 -90 51 -11
10 -42 29 -69 41 -27 12 -72 40 -101 63 -29 22 -65 49 -81 58 -16 10 -48 32
-71 50 -23 18 -55 42 -71 53 -77 51 -131 94 -173 135 -26 25 -75 70 -109 100
-71 63 -172 164 -245 246 -27 31 -73 79 -101 107 -28 29 -60 68 -72 87 -11 20
-33 47 -47 60 -15 14 -32 39 -39 55 -7 17 -32 52 -55 78 -22 27 -41 55 -41 63
0 8 -20 36 -44 62 -25 27 -55 70 -66 98 -12 27 -34 63 -49 79 -16 17 -36 54
-46 83 -9 28 -32 70 -51 93 -18 22 -39 59 -45 82 -6 23 -29 63 -50 89 -30 36
-42 61 -49 102 -9 55 -31 109 -50 121 -18 11 -40 63 -54 130 -8 40 -29 90 -51
126 -31 50 -39 75 -47 142 -8 68 -16 94 -51 152 -37 63 -41 78 -48 160 -6 88
-19 127 -59 185 -24 33 -40 125 -40 220 0 82 -11 128 -43 173 -35 52 -48 125
-55 332 -7 186 -9 203 -31 240 -17 30 -23 53 -22 91 1 34 -6 67 -21 100 l-23
49 -5 5793 c-5 5721 -5 5794 -24 5808 -17 12 -204 14 -1265 13 -712 0 -1259
-5 -1277 -10z"/>
<path d="M52450 43740 c0 -25 35 -57 71 -65 20 -5 34 -17 46 -42 11 -25 29
-41 60 -54 26 -11 48 -29 55 -44 7 -15 30 -36 52 -47 41 -21 71 -46 170 -144
28 -28 67 -60 86 -72 19 -11 47 -37 62 -56 15 -19 43 -40 63 -46 19 -6 35 -18
35 -25 0 -19 49 -75 66 -75 7 0 25 -18 39 -40 14 -23 39 -49 56 -59 17 -11 40
-33 50 -50 10 -17 32 -39 49 -49 16 -10 40 -34 53 -53 12 -19 35 -40 50 -47
16 -8 36 -32 47 -55 11 -23 63 -87 116 -141 52 -54 101 -114 109 -132 13 -31
57 -56 72 -41 13 14 -11 63 -56 111 -26 28 -57 67 -69 86 -11 19 -30 41 -41
48 -12 6 -32 30 -46 53 -15 22 -40 46 -57 53 -18 8 -36 26 -44 45 -7 17 -29
40 -48 52 -19 11 -44 35 -55 54 -11 19 -33 41 -49 49 -16 8 -39 31 -50 50 -11
19 -34 42 -50 50 -16 8 -39 31 -51 51 -12 21 -36 42 -55 50 -22 9 -37 25 -44
44 -6 17 -27 40 -50 55 -22 13 -50 38 -63 54 -13 16 -43 39 -66 51 -24 12 -50
32 -58 45 -8 12 -38 35 -66 50 -28 16 -54 38 -59 51 -9 25 -51 61 -81 70 -11
4 -26 20 -35 36 -9 19 -31 37 -59 49 -24 10 -46 27 -50 39 -15 49 -105 84
-105 41z"/>
<path d="M52440 43340 c0 -22 28 -42 80 -59 25 -8 41 -22 55 -48 16 -30 30
-41 69 -53 32 -11 53 -24 61 -41 8 -14 33 -34 57 -44 24 -10 61 -38 83 -62 29
-32 50 -45 77 -50 l38 -6 -11 33 c-9 24 -23 37 -58 53 -25 11 -50 26 -55 35
-19 32 -48 52 -91 63 -37 9 -48 18 -59 44 -13 31 -65 65 -100 65 -9 0 -21 11
-26 25 -16 41 -47 65 -85 65 -28 0 -35 -4 -35 -20z"/>
<path d="M48132 43241 c-44 -12 -48 -17 -20 -33 32 -18 293 -18 327 1 23 13
23 14 5 24 -23 14 -266 19 -312 8z"/>
<path d="M48810 43238 c-32 -9 -33 -11 -16 -23 40 -29 254 -33 306 -5 l25 13
-30 13 c-36 16 -233 17 -285 2z"/>
<path d="M50930 42829 c-36 -16 -78 -43 -95 -59 -45 -43 -78 -52 -165 -44 -69
6 -81 4 -127 -20 -98 -49 -124 -54 -261 -49 -111 5 -143 2 -254 -21 -164 -34
-296 -36 -339 -5 -48 34 -82 39 -156 23 -36 -7 -71 -18 -77 -24 -7 -7 4 -24
35 -55 43 -43 46 -45 77 -34 42 14 64 6 60 -23 -2 -19 -10 -24 -46 -26 -35 -3
-45 -8 -57 -32 -20 -38 -37 -46 -110 -55 -43 -5 -72 -15 -103 -37 -35 -24 -53
-30 -105 -31 l-62 -2 -3 32 c-2 17 -9 36 -16 42 -20 16 -185 32 -208 20 -16
-9 -17 -13 -6 -27 7 -9 23 -25 36 -35 12 -10 22 -27 22 -37 0 -30 -44 -73
-106 -105 -33 -16 -74 -39 -93 -52 -41 -28 -61 -29 -61 -5 0 27 -40 60 -96 78
-27 10 -66 32 -86 50 -49 44 -164 61 -176 27 -4 -14 8 -20 106 -54 44 -15 62
-27 62 -39 0 -10 7 -37 15 -60 l15 -43 -57 -54 c-88 -81 -129 -83 -199 -7 -28
31 -55 49 -88 59 -77 24 -99 1 -46 -48 51 -48 35 -110 -48 -190 -37 -37 -58
-49 -83 -50 -31 -2 -35 1 -47 38 -7 22 -20 47 -29 57 -36 40 -81 5 -68 -52 8
-34 -19 -137 -42 -162 -22 -24 -37 -23 -81 7 -53 36 -69 33 -91 -19 -12 -26
-35 -55 -59 -72 -22 -16 -48 -41 -57 -56 -17 -30 -45 -38 -45 -14 0 20 -64 86
-83 86 -24 0 -35 -27 -42 -110 -10 -96 -26 -130 -64 -130 -31 0 -51 19 -71 68
-10 25 -18 32 -40 32 l-27 0 4 -87 c5 -79 3 -91 -17 -115 -25 -32 -63 -37 -82
-10 -7 10 -25 26 -39 36 -41 26 -59 2 -59 -80 0 -55 -4 -68 -28 -94 -32 -36
-59 -33 -68 9 -10 39 -33 61 -65 61 -33 0 -36 -9 -42 -112 -3 -68 -21 -107
-60 -132 -28 -18 -67 28 -67 80 0 43 -18 70 -42 62 -9 -3 -13 -33 -14 -104 0
-54 -6 -120 -13 -145 -16 -57 -48 -75 -160 -88 -42 -6 -77 -15 -82 -23 -5 -7
-11 -33 -14 -58 -3 -25 -8 -55 -10 -66 -6 -27 -110 -98 -131 -90 -8 3 -22 19
-32 36 -9 16 -19 30 -22 30 -3 0 -11 -20 -18 -45 -8 -29 -21 -51 -38 -62 -27
-18 -74 -103 -74 -136 0 -10 -17 -36 -37 -57 -21 -21 -45 -49 -54 -62 l-17
-23 -32 24 c-23 17 -35 20 -43 12 -6 -6 -23 -11 -38 -11 -25 0 -57 -20 -60
-38 -1 -4 -2 -28 -3 -53 -1 -30 -9 -55 -24 -73 -12 -16 -22 -41 -22 -57 0 -21
-9 -33 -35 -49 -41 -25 -45 -40 -11 -40 38 0 56 10 72 41 12 24 21 29 52 29
46 0 62 10 81 51 11 21 27 35 51 43 21 7 43 25 58 46 12 19 35 40 51 47 15 6
40 28 55 48 15 20 46 47 69 62 23 14 61 43 84 64 24 22 52 39 64 39 12 0 35
15 53 34 17 19 48 41 69 50 21 8 45 28 55 45 9 17 30 36 45 42 15 6 51 34 80
61 35 32 66 53 95 60 29 7 51 21 65 40 12 17 38 37 58 45 20 8 51 32 68 53 22
28 48 45 90 60 35 13 67 33 79 49 11 15 38 33 62 40 29 8 47 22 61 45 19 33
60 58 117 71 19 4 42 19 54 36 13 17 39 34 62 41 23 7 56 30 82 56 35 38 51
46 96 53 44 7 59 15 88 48 36 42 73 61 117 61 16 0 38 13 59 36 19 20 59 45
92 58 31 12 73 37 92 54 19 18 42 32 52 32 33 0 125 40 148 64 13 15 52 34 94
46 45 14 82 33 103 52 23 22 52 35 109 49 55 13 86 26 108 47 45 43 68 52 132
52 55 0 59 2 100 46 l43 47 89 7 c95 8 125 19 142 50 18 33 61 47 162 52 95 5
99 6 137 41 50 45 93 57 212 57 90 0 99 2 170 37 l74 37 180 7 c99 4 196 12
214 18 19 6 64 10 100 9 56 -2 74 2 120 27 75 41 158 43 197 4 15 -15 24 -31
21 -36 -4 -6 -43 -13 -88 -17 -85 -7 -123 -20 -116 -39 7 -23 55 -48 104 -54
64 -7 98 12 111 60 l8 32 102 11 c64 7 110 18 124 28 13 9 38 27 56 40 38 28
116 42 154 27 16 -6 35 -26 45 -48 14 -29 26 -39 51 -44 57 -12 110 1 140 33
38 41 74 58 123 58 34 0 47 -6 76 -35 47 -47 64 -55 111 -55 29 0 50 8 77 30
48 38 106 42 129 8 19 -26 5 -48 -29 -48 -31 0 -70 -33 -62 -53 9 -23 50 -48
83 -50 26 -2 29 2 36 42 4 25 13 48 20 53 7 4 43 8 79 8 l66 0 16 -40 c10 -27
25 -43 43 -50 44 -17 67 -9 86 32 29 60 81 61 132 1 14 -16 35 -26 66 -30 61
-8 77 -17 100 -62 14 -28 31 -43 60 -55 30 -12 44 -25 52 -47 7 -21 22 -36 45
-45 19 -8 36 -22 39 -32 16 -51 36 -82 61 -94 19 -9 33 -28 46 -63 15 -44 30
-62 83 -105 7 -5 15 -33 19 -62 9 -66 30 -108 54 -108 55 0 32 147 -28 181
-22 13 -31 29 -42 75 -12 52 -18 61 -50 77 -30 14 -38 24 -43 56 -7 44 -18 56
-63 66 -29 6 -32 10 -35 48 -3 40 -5 42 -41 48 -48 8 -53 13 -41 47 14 41 47
40 88 -2 24 -26 42 -36 64 -36 23 0 42 -10 71 -40 22 -22 47 -40 56 -40 10 0
23 -15 32 -38 8 -22 28 -46 44 -56 16 -10 41 -35 55 -56 22 -33 47 -49 78 -50
5 0 6 25 2 56 -12 100 20 109 121 33 80 -61 89 -72 98 -123 9 -47 41 -65 86
-49 32 12 47 2 24 -17 -17 -14 -20 -72 -5 -101 6 -11 21 -19 35 -19 22 0 25 6
31 50 5 34 12 51 24 55 31 10 69 -13 89 -53 14 -28 29 -41 53 -48 29 -8 36
-17 53 -69 25 -75 50 -83 101 -34 l33 32 11 -25 c12 -25 4 -51 -35 -118 -25
-42 -2 -110 36 -110 13 0 20 10 24 38 12 71 20 87 47 90 36 4 66 -26 86 -88
16 -53 18 -55 61 -62 24 -4 46 -9 48 -12 3 -3 0 -26 -5 -52 -14 -66 3 -119 38
-119 19 0 30 10 48 43 25 45 41 51 67 25 25 -25 12 -90 -26 -129 -35 -36 -45
-84 -30 -141 21 -79 42 -69 71 32 22 75 33 88 70 79 51 -12 62 -33 55 -101 -8
-72 4 -103 39 -103 13 0 35 9 49 20 34 27 56 25 67 -6 16 -41 12 -66 -16 -95
-43 -45 -52 -132 -22 -212 16 -42 31 -28 53 54 12 41 25 80 29 87 13 21 53 13
75 -13 28 -37 34 -76 21 -140 -9 -43 -9 -60 2 -82 14 -29 20 -30 112 -21 24 3
31 -2 39 -25 7 -22 3 -47 -19 -115 -21 -67 -27 -108 -28 -177 -1 -92 18 -205
35 -205 9 0 10 1 34 135 25 140 32 157 63 153 17 -2 35 -16 50 -38 22 -33 23
-41 20 -185 -3 -132 -1 -154 15 -179 18 -27 19 -27 39 -9 11 10 29 35 40 57
24 47 35 40 68 -52 18 -49 21 -73 16 -110 -4 -26 -10 -64 -13 -84 -3 -22 2
-57 11 -83 8 -25 13 -52 9 -60 -18 -49 33 -92 85 -73 16 6 36 9 45 5 22 -8 40
-83 33 -135 -4 -28 0 -64 10 -98 13 -45 13 -63 3 -108 -10 -45 -9 -65 4 -122
20 -90 38 -236 36 -299 -1 -27 -2 -113 -2 -190 0 -77 0 -174 0 -215 0 -105 9
-225 17 -238 4 -7 14 -12 21 -12 47 0 59 145 41 485 -8 154 -8 161 12 185 l21
25 23 -23 c22 -21 23 -33 30 -190 4 -92 11 -185 17 -207 6 -22 11 -62 11 -90
0 -27 9 -83 20 -124 13 -47 20 -107 20 -162 0 -48 7 -121 16 -161 23 -102 21
-278 -3 -318 -9 -17 -21 -31 -25 -31 -32 -7 -33 -3 -34 196 -1 202 -9 255 -38
255 -24 0 -34 -29 -46 -139 -23 -191 -4 -314 50 -328 27 -7 32 -25 40 -173 5
-103 13 -154 33 -215 29 -91 67 -276 67 -330 0 -73 -21 -127 -69 -173 l-45
-44 13 -91 c7 -51 17 -121 21 -157 5 -36 16 -99 26 -140 24 -109 -4 -202 -35
-113 -20 56 -39 83 -61 83 -30 0 -44 -38 -45 -121 0 -71 2 -79 37 -130 45 -66
70 -150 66 -221 -3 -47 -6 -55 -37 -76 -53 -35 -64 -27 -78 56 -13 76 -31 123
-49 129 -17 6 -44 -71 -44 -122 0 -49 25 -85 59 -85 29 0 38 -19 44 -95 3 -39
14 -93 25 -120 36 -91 47 -160 33 -206 -15 -51 -30 -46 -56 17 -28 68 -33 74
-60 74 -20 0 -26 -7 -36 -42 -18 -68 -6 -144 32 -190 25 -32 34 -56 47 -131
l15 -91 -28 -23 c-17 -15 -37 -23 -54 -21 -25 3 -26 6 -34 83 -12 119 -48 160
-74 84 -26 -76 -11 -140 42 -169 26 -14 31 -24 37 -71 17 -148 7 -193 -51
-222 -37 -19 -46 -59 -32 -147 17 -100 23 -110 70 -110 73 0 106 76 59 136
-39 49 -31 88 38 179 34 44 66 90 72 102 15 28 15 71 1 126 -11 39 -9 49 26
137 21 52 48 115 60 140 17 35 24 71 29 160 17 293 20 312 53 360 17 25 33 55
37 68 7 21 18 298 17 406 -1 26 5 74 13 105 8 31 14 90 13 131 -1 56 5 90 22
135 36 94 49 333 46 846 -3 514 -7 590 -41 672 -13 33 -24 79 -24 101 0 23 -5
59 -11 81 -5 22 -13 153 -18 292 l-8 252 -43 88 -43 88 -7 168 c-7 168 -8 169
-37 200 -57 62 -57 64 -63 197 -6 121 -8 130 -36 170 -51 74 -58 93 -64 180
-6 79 -26 140 -50 155 -23 14 -42 71 -50 146 -6 64 -13 87 -36 119 -46 65 -56
88 -61 154 -6 66 -21 102 -64 156 -35 44 -61 115 -53 146 10 39 -4 73 -51 121
-39 40 -45 51 -45 88 0 59 -14 92 -57 131 -31 29 -38 44 -54 120 -18 89 -28
104 -66 104 -40 0 -53 25 -53 104 0 83 -6 93 -65 98 l-40 3 0 85 c0 71 -3 85
-17 88 -9 2 -19 -2 -23 -7 -10 -16 -78 -13 -103 5 -28 19 -28 30 2 73 24 36
42 101 28 101 -4 0 -16 -7 -26 -15 -11 -8 -37 -15 -58 -15 -32 0 -40 -4 -48
-25 -10 -26 -42 -33 -69 -16 -24 15 -4 39 38 46 40 7 41 8 41 46 0 32 7 46 35
75 41 40 42 44 15 75 l-20 24 -17 -22 c-10 -12 -25 -31 -33 -42 -10 -13 -33
-21 -72 -26 -70 -8 -72 -1 -28 82 17 31 30 64 30 74 0 11 6 19 13 19 37 0 64
74 32 86 -23 9 -45 -15 -45 -47 0 -31 -23 -49 -64 -49 -20 0 -30 -9 -46 -41
-19 -36 -24 -40 -53 -37 -26 2 -36 10 -51 41 -13 28 -30 44 -60 56 -29 13 -46
29 -59 55 -12 27 -29 42 -61 56 -49 21 -66 43 -66 88 0 36 -18 45 -60 31 -23
-8 -34 -8 -45 1 -19 16 -19 32 2 68 9 16 14 36 10 45 -9 24 -55 21 -76 -5 -11
-13 -24 -19 -34 -15 -25 10 -20 42 8 55 30 14 35 61 9 87 -24 24 -47 14 -70
-30 -16 -31 -27 -41 -50 -43 -18 -2 -39 -15 -56 -34 -28 -32 -53 -33 -65 -2
-4 10 4 24 22 38 19 15 26 29 23 46 -3 24 -6 25 -65 23 -65 -3 -67 -2 -63 44
2 34 -32 60 -89 68 -47 6 -51 9 -51 34 0 37 -26 71 -55 71 -27 0 -39 -28 -33
-71 2 -20 10 -25 41 -27 42 -4 46 -16 22 -62 -20 -39 -29 -38 -54 5 -11 20
-29 38 -38 41 -63 19 -81 33 -87 68 -12 65 -62 73 -113 20 -54 -57 -82 -24
-49 57 19 49 12 59 -43 59 -55 0 -72 -11 -96 -62 -28 -61 -77 -50 -91 20 -7
36 8 62 36 62 23 0 53 34 48 56 -9 45 -78 42 -102 -5 -15 -28 -106 -81 -139
-81 -21 0 -36 28 -43 83 l-6 44 37 6 c64 10 96 55 56 77 -45 24 -91 -2 -91
-52 0 -22 -5 -26 -42 -32 -53 -9 -86 -29 -98 -62 -11 -28 -37 -31 -80 -9 -37
19 -38 40 -4 71 19 18 24 32 22 57 -3 31 -4 32 -49 31 -41 0 -54 -6 -109 -52
-69 -58 -100 -70 -136 -53 -20 9 -24 18 -24 51 0 43 15 63 68 92 38 20 41 44
9 59 -36 16 -102 -6 -144 -47 -19 -19 -59 -46 -88 -59 -30 -13 -60 -33 -67
-44 -8 -13 -23 -21 -39 -21 -36 0 -131 29 -148 45 -12 12 -9 17 23 35 44 26
58 66 31 87 -37 26 -113 10 -165 -37 -34 -30 -89 -58 -185 -92 -115 -42 -128
-43 -190 -18 -31 13 -65 20 -77 17 -13 -4 -30 -2 -38 4 -13 8 -12 11 4 24 11
8 28 15 37 15 19 0 49 36 49 57 0 7 -9 22 -20 33 -29 29 -92 25 -170 -11z"/>
<path d="M53200 42757 c0 -21 22 -46 60 -66 19 -10 46 -34 60 -54 14 -20 39
-46 55 -59 17 -12 32 -26 33 -31 2 -4 15 -21 29 -37 19 -23 33 -30 59 -30 29
0 34 3 34 24 0 26 -33 56 -61 56 -9 0 -29 16 -44 36 -15 20 -42 42 -60 50 -18
7 -42 29 -53 48 -11 19 -39 44 -61 55 -47 25 -51 25 -51 8z"/>
<path d="M51960 42148 c1 -28 16 -49 54 -73 16 -11 37 -33 47 -49 10 -17 35
-40 56 -52 29 -16 40 -30 50 -65 14 -47 43 -79 74 -79 15 0 19 7 19 35 0 47
-22 88 -54 103 -15 6 -32 24 -38 39 -6 16 -28 46 -49 68 -20 22 -48 52 -63 68
-34 36 -96 39 -96 5z"/>
<path d="M52284 42155 c-10 -24 3 -44 40 -66 19 -11 44 -36 55 -55 11 -19 31
-39 45 -45 13 -6 32 -29 42 -51 11 -24 33 -50 55 -64 32 -20 39 -30 44 -71 8
-56 25 -86 61 -109 39 -26 48 -8 34 62 -10 47 -20 66 -50 94 -21 19 -45 52
-53 73 -9 21 -30 45 -49 57 -18 10 -39 32 -46 48 -6 16 -29 37 -49 48 -24 13
-39 29 -44 48 -5 16 -14 33 -21 37 -21 14 -58 10 -64 -6z"/>
<path d="M50773 42144 c-8 -21 4 -31 71 -58 37 -15 69 -38 93 -66 20 -23 55
-50 78 -60 36 -16 43 -24 50 -56 10 -54 32 -93 60 -106 26 -12 40 -42 49 -103
6 -44 35 -90 57 -90 8 0 18 16 23 37 13 54 -6 111 -49 144 -23 18 -38 40 -46
68 -12 47 -32 72 -71 92 -16 8 -28 19 -28 25 0 6 -7 26 -16 44 -12 27 -27 38
-66 51 -33 11 -53 24 -61 41 -6 13 -23 31 -38 39 -38 19 -98 18 -106 -2z"/>
<path d="M51241 42152 c-25 -17 -2 -50 52 -76 42 -20 56 -33 74 -70 13 -26 34
-51 52 -60 23 -12 33 -28 46 -72 17 -58 52 -104 80 -104 11 0 15 11 15 40 0
54 -22 104 -55 126 -14 9 -37 39 -50 65 -19 36 -33 50 -60 59 -23 8 -37 19
-41 35 -3 13 -14 31 -23 39 -22 20 -72 29 -90 18z"/>
<path d="M51610 42147 c0 -7 32 -44 71 -82 39 -39 79 -87 90 -107 10 -20 34
-49 53 -63 26 -20 36 -37 41 -68 9 -52 29 -93 51 -101 21 -8 31 -1 38 29 11
43 -11 102 -49 131 -20 15 -41 44 -51 70 -10 27 -32 57 -56 76 -22 17 -50 48
-64 69 -17 27 -34 41 -61 48 -50 14 -63 14 -63 -2z"/>
<path d="M53170 41776 c0 -41 18 -76 50 -94 21 -12 31 -27 36 -52 10 -63 35
-121 60 -137 36 -23 43 -8 33 71 -9 71 -28 106 -59 106 -23 0 -40 20 -40 48 0
26 -17 63 -34 74 -24 16 -46 8 -46 -16z"/>
<path d="M51980 41614 c-15 -37 -12 -140 4 -178 18 -43 34 -52 54 -33 22 22
20 162 -2 206 -20 38 -43 40 -56 5z"/>
<path d="M51288 41473 c-6 -16 -10 -70 -9 -128 4 -156 3 -417 -1 -570 -2 -77
-1 -151 2 -165 8 -33 37 -38 49 -8 18 49 30 216 19 284 -6 40 -7 135 -3 238 9
244 8 261 -10 316 -20 61 -32 69 -47 33z"/>
<path d="M52383 41463 c-8 -27 -9 -94 -6 -348 0 -66 1 -180 1 -253 0 -146 5
-182 26 -182 33 0 38 50 41 385 2 284 0 337 -14 375 -19 52 -38 61 -48 23z"/>
<path d="M53370 41372 c0 -81 12 -136 36 -162 26 -27 39 4 39 95 -1 69 -4 89
-21 112 -12 16 -29 29 -38 31 -14 3 -16 -8 -16 -76z"/>
<path d="M53084 41358 c-4 -18 -9 -190 -10 -383 -1 -192 -2 -368 -2 -390 -1
-60 12 -110 28 -110 8 0 23 22 33 50 16 41 18 65 13 135 -4 47 -7 168 -7 270
0 102 3 223 7 270 5 69 3 94 -12 134 -23 60 -40 68 -50 24z"/>
<path d="M51680 41264 c-13 -34 -13 -249 1 -296 11 -43 23 -48 41 -15 19 32
18 298 -1 320 -19 24 -30 21 -41 -9z"/>
<path d="M53791 40986 c-32 -38 -32 -674 -1 -711 12 -15 15 -14 28 11 37 70
35 619 -2 692 -11 21 -14 22 -25 8z"/>
<path d="M54086 40882 c-2 -4 -10 -36 -16 -72 -9 -50 -9 -90 1 -176 8 -76 10
-164 4 -280 -10 -231 -10 -258 0 -342 13 -116 32 -110 60 20 15 71 16 95 4
237 -9 121 -9 192 -1 308 12 156 11 185 -15 266 -14 44 -26 57 -37 39z"/>
<path d="M51999 40854 c-16 -20 -35 -253 -25 -307 8 -43 33 -50 56 -14 19 29
28 284 11 316 -14 25 -24 26 -42 5z"/>
<path d="M52707 40643 c-23 -26 -36 -96 -37 -188 0 -93 7 -125 26 -125 39 0
66 130 53 253 -8 69 -19 85 -42 60z"/>
<path d="M54379 40633 c-5 -14 -9 -83 -9 -152 3 -362 3 -472 1 -536 -2 -59 0
-124 8 -237 2 -27 19 -22 34 10 29 57 33 136 21 427 -4 99 -2 173 6 218 9 53
9 87 0 155 -18 134 -39 173 -61 115z"/>
<path d="M51593 40583 c-16 -40 -22 -170 -9 -211 5 -14 14 -22 24 -20 47 9 58
268 12 268 -6 0 -18 -17 -27 -37z"/>
<path d="M52291 40443 c-8 -15 -16 -58 -19 -95 -8 -108 11 -144 53 -98 11 12
19 41 22 82 9 109 -26 177 -56 111z"/>
<path d="M51196 40353 c-35 -101 -30 -223 9 -223 26 0 45 63 44 142 -2 128
-25 163 -53 81z"/>
<path d="M53390 40353 c-20 -42 -25 -203 -7 -227 44 -60 88 105 56 217 -12 44
-31 48 -49 10z"/>
<path d="M52993 40263 c-25 -38 -32 -193 -9 -212 13 -11 19 -11 31 -1 44 36
48 240 5 240 -5 0 -18 -12 -27 -27z"/>
<path d="M52597 40212 c-30 -33 -52 -222 -27 -237 15 -9 48 13 64 43 7 15 16
54 20 87 10 100 -17 152 -57 107z"/>
<path d="M54680 40196 c-5 -14 -6 -105 -3 -213 4 -124 2 -216 -6 -269 -13 -87
-4 -134 24 -134 29 0 35 51 35 320 0 256 -6 320 -30 320 -6 0 -15 -11 -20 -24z"/>
<path d="M53691 40020 c-25 -56 -29 -166 -6 -196 15 -19 15 -19 34 3 35 41 38
176 6 220 -12 16 -15 14 -34 -27z"/>
<path d="M51093 40004 c-25 -38 -31 -165 -9 -183 24 -20 63 25 72 84 14 97
-24 157 -63 99z"/>
<path d="M52390 39658 c-15 -24 -20 -51 -20 -100 0 -66 -1 -68 -34 -90 -43
-29 -61 -58 -75 -129 -9 -42 -20 -63 -46 -88 -32 -30 -45 -59 -59 -138 -5 -28
-3 -33 15 -33 50 0 89 53 89 121 0 23 10 40 39 68 39 37 54 71 66 150 4 33 15
54 40 78 37 36 55 84 55 151 0 38 -2 42 -25 42 -18 0 -31 -10 -45 -32z"/>
<path d="M54294 39489 c-16 -18 -19 -37 -19 -127 0 -94 2 -107 18 -110 28 -6
47 55 47 151 0 97 -13 122 -46 86z"/>
<path d="M54892 39355 c-7 -14 -12 -46 -12 -70 0 -24 -5 -67 -11 -96 -8 -39
-8 -75 1 -148 14 -104 24 -127 39 -90 15 40 35 138 33 172 0 18 -2 75 -2 127
-1 52 -4 103 -6 113 -8 25 -29 21 -42 -8z"/>
<path d="M54594 39305 c-14 -22 -19 -52 -22 -129 -3 -119 6 -143 40 -108 20
20 23 34 26 125 3 77 0 107 -11 121 -14 19 -15 19 -33 -9z"/>
<path d="M52123 39060 c-25 -10 -47 -49 -57 -100 -4 -23 -21 -48 -51 -76 -41
-37 -45 -45 -45 -87 0 -25 5 -49 10 -52 23 -14 60 25 76 82 12 40 28 67 55 93
36 34 39 41 39 93 0 32 -1 57 -2 56 -2 0 -13 -4 -25 -9z"/>
<path d="M52891 39009 c-11 -12 -23 -40 -26 -63 -10 -66 -14 -74 -50 -95 -26
-15 -35 -28 -40 -58 -3 -21 -8 -51 -10 -66 -4 -25 -2 -28 18 -22 33 10 67 52
67 85 0 46 16 76 48 89 33 14 52 47 52 91 0 61 -23 77 -59 39z"/>
<path d="M51605 38825 c-14 -13 -25 -35 -25 -48 0 -60 -11 -83 -46 -96 -59
-21 -89 -122 -38 -129 29 -4 52 27 67 87 9 41 18 56 40 67 32 17 47 50 47 105
0 45 -11 49 -45 14z"/>
<path d="M55106 38822 c-16 -27 -45 -161 -45 -207 1 -62 21 -150 34 -150 5 0
17 23 28 50 15 42 18 69 13 168 -5 113 -15 162 -30 139z"/>
<path d="M54789 38749 c-17 -34 -22 -62 -23 -121 -1 -79 9 -103 36 -93 27 10
42 64 42 147 0 59 -4 83 -16 95 -15 14 -18 12 -39 -28z"/>
<path d="M51896 38691 c-10 -11 -24 -40 -31 -65 -9 -29 -29 -60 -54 -84 -26
-25 -42 -50 -46 -75 -5 -26 -18 -46 -41 -64 -22 -16 -40 -43 -51 -74 -12 -33
-31 -60 -55 -80 -27 -21 -41 -43 -49 -75 -8 -32 -22 -53 -50 -75 -25 -19 -43
-44 -50 -70 -8 -27 -23 -46 -45 -60 -46 -28 -73 -119 -36 -119 24 0 59 38 67
73 4 15 24 41 45 57 23 19 45 48 56 75 11 29 28 51 49 64 24 14 37 32 50 70
11 34 28 60 50 77 22 17 39 42 50 74 11 32 28 57 50 74 18 14 36 34 39 43 3
10 10 37 15 59 9 32 18 45 42 54 36 15 59 56 59 105 0 30 -3 35 -23 35 -13 0
-32 -9 -41 -19z"/>
<path d="M52200 38540 c-11 -11 -22 -32 -26 -47 -13 -59 -20 -73 -53 -95 -24
-16 -39 -38 -51 -72 -9 -29 -26 -56 -41 -65 -35 -23 -47 -41 -55 -81 -9 -48
-22 -70 -40 -70 -25 0 -62 -45 -74 -89 -7 -28 -18 -45 -33 -50 -29 -11 -41
-26 -61 -81 -11 -29 -27 -51 -46 -62 -19 -11 -38 -37 -53 -70 -15 -33 -33 -58
-49 -65 -14 -6 -34 -31 -46 -57 -14 -28 -34 -51 -53 -61 -19 -10 -37 -32 -49
-59 -10 -24 -32 -53 -48 -65 -18 -13 -36 -38 -44 -64 -10 -28 -26 -50 -49 -65
-19 -13 -44 -43 -56 -66 -13 -25 -37 -52 -58 -65 -20 -12 -42 -36 -50 -54 -8
-19 -30 -46 -49 -61 -20 -15 -43 -40 -51 -56 -9 -16 -28 -36 -44 -44 -17 -9
-35 -31 -44 -54 -10 -25 -29 -47 -52 -60 -19 -12 -40 -33 -45 -47 -5 -14 -26
-35 -46 -47 -25 -15 -44 -38 -60 -72 -24 -54 -21 -51 -486 -507 -245 -241
-313 -321 -255 -303 52 16 84 43 246 206 239 242 244 248 273 298 27 45 192
212 260 262 22 17 43 45 53 70 10 27 27 50 45 60 16 9 38 31 49 48 10 18 33
41 50 51 18 11 41 35 52 53 11 19 31 42 45 50 13 9 35 34 49 56 13 21 37 45
52 52 16 7 37 31 49 56 11 24 33 52 49 62 31 20 54 55 55 82 0 9 17 30 38 47
21 16 47 48 57 70 10 24 32 49 52 61 21 12 40 36 52 63 11 25 29 47 44 54 15
7 37 33 51 60 14 27 38 55 55 65 23 13 34 29 43 63 9 34 23 55 50 77 25 19 41
43 48 69 8 30 19 43 49 58 37 19 53 44 67 103 3 16 20 35 39 47 31 18 55 65
55 107 0 6 17 23 38 37 37 24 54 51 66 109 3 15 15 30 27 33 29 10 59 64 59
108 0 43 -18 49 -50 17z"/>
<path d="M53501 38533 c-13 -11 -27 -41 -36 -78 -8 -34 -21 -64 -30 -70 -50
-29 -58 -42 -63 -98 -4 -48 -2 -57 12 -57 33 0 76 71 76 127 0 6 15 21 33 32
41 25 57 58 57 116 0 50 -13 57 -49 28z"/>
<path d="M52601 38501 c-7 -5 -21 -33 -31 -62 -13 -38 -27 -59 -47 -70 -62
-35 -74 -133 -13 -114 11 4 27 26 38 57 14 37 30 58 58 77 35 25 39 31 39 71
0 46 -15 60 -44 41z"/>
<path d="M55296 38472 c-15 -24 -27 -116 -28 -215 -1 -157 15 -198 49 -119 20
45 28 260 12 310 -10 31 -23 40 -33 24z"/>
<path d="M51002 38402 c-11 -11 -27 -42 -36 -68 -11 -34 -25 -54 -45 -66 -21
-11 -32 -27 -36 -52 -8 -39 -2 -66 14 -66 19 0 51 43 57 77 5 25 17 41 45 59
40 25 53 52 47 100 -4 35 -21 41 -46 16z"/>
<path d="M51305 38337 c-20 -17 -28 -35 -32 -71 -5 -43 -10 -50 -38 -62 -42
-17 -56 -35 -62 -84 -5 -33 -3 -40 11 -40 43 0 76 46 76 106 0 18 9 28 35 38
38 16 55 47 55 102 0 40 -9 42 -45 11z"/>
<path d="M54991 38316 c-22 -26 -34 -136 -22 -183 7 -24 16 -43 22 -43 19 0
47 64 53 124 10 92 -18 145 -53 102z"/>
<path d="M52896 38277 c-13 -13 -27 -42 -31 -65 -5 -31 -15 -48 -42 -68 -20
-15 -45 -48 -58 -78 -14 -32 -32 -56 -48 -63 -18 -8 -31 -28 -44 -64 -13 -37
-27 -58 -49 -71 -34 -20 -54 -55 -54 -93 0 -57 66 -14 90 59 7 21 22 38 43 48
22 11 36 27 46 54 7 22 30 55 52 75 26 25 42 50 50 83 9 38 19 52 48 71 36 22
61 72 61 119 0 24 -37 20 -64 -7z"/>
<path d="M52391 38185 c-11 -15 -23 -42 -27 -61 -4 -24 -15 -39 -35 -49 -15
-8 -35 -25 -43 -37 -17 -24 -22 -88 -7 -88 21 0 62 45 73 81 9 31 19 43 45 54
35 15 67 70 61 103 -5 28 -44 26 -67 -3z"/>
<path d="M53307 38199 c-22 -13 -47 -68 -47 -104 0 -19 -8 -28 -34 -39 -39
-16 -51 -34 -61 -89 -6 -30 -16 -44 -46 -63 -31 -19 -42 -34 -51 -70 -9 -33
-20 -50 -40 -60 -39 -20 -60 -56 -56 -98 3 -34 4 -35 28 -23 14 7 36 34 49 62
13 28 38 59 55 70 20 13 37 38 51 73 13 36 29 59 47 68 26 14 37 37 52 114 4
18 16 30 40 38 36 13 55 45 59 97 2 32 -16 42 -46 24z"/>
<path d="M54181 38159 c-10 -17 -21 -52 -25 -79 -5 -41 -11 -51 -40 -68 -24
-14 -36 -31 -45 -64 -15 -54 -12 -92 9 -96 29 -5 57 34 69 98 11 53 17 64 46
81 37 22 55 61 55 120 0 35 -3 39 -25 39 -17 0 -31 -10 -44 -31z"/>
<path d="M50791 38079 c-11 -17 -22 -46 -25 -64 -5 -24 -14 -36 -35 -45 -31
-12 -51 -46 -51 -85 0 -61 64 -21 75 47 6 33 13 42 39 53 44 19 59 39 60 83 1
31 -3 38 -21 40 -16 2 -28 -5 -42 -29z"/>
<path d="M53695 38086 c-14 -14 -25 -31 -25 -38 0 -44 -23 -88 -55 -107 -21
-12 -37 -31 -41 -48 -18 -82 -26 -103 -38 -103 -26 0 -63 -39 -75 -79 -7 -24
-24 -50 -41 -62 -31 -23 -45 -52 -54 -110 -5 -29 -12 -37 -42 -48 -29 -11 -41
-23 -56 -60 -12 -27 -33 -54 -51 -66 -20 -13 -38 -37 -48 -65 -11 -30 -27 -51
-49 -64 -22 -13 -40 -37 -56 -72 -16 -36 -33 -58 -54 -69 -20 -10 -38 -32 -50
-61 -12 -27 -30 -49 -45 -56 -15 -7 -35 -29 -46 -50 -11 -21 -31 -45 -45 -55
-14 -9 -37 -34 -50 -55 -13 -20 -37 -44 -53 -52 -16 -9 -37 -34 -49 -58 -12
-25 -75 -99 -152 -178 -78 -80 -141 -153 -154 -179 -12 -26 -34 -52 -51 -61
-16 -9 -39 -32 -50 -52 -10 -20 -34 -43 -52 -52 -19 -9 -40 -30 -49 -49 -9
-18 -32 -41 -52 -52 -21 -11 -43 -34 -51 -51 -9 -20 -27 -37 -53 -48 -21 -10
-48 -31 -60 -47 -12 -16 -41 -41 -65 -55 -24 -13 -57 -46 -74 -72 -17 -27 -42
-55 -54 -63 -13 -7 -59 -45 -103 -84 -44 -38 -95 -79 -113 -90 -32 -19 -67
-71 -55 -82 14 -14 65 13 112 60 168 168 224 217 272 241 29 15 61 40 71 56
10 16 36 43 59 60 23 16 44 41 48 55 4 18 18 31 44 41 25 10 42 26 53 50 10
20 31 41 51 50 19 10 40 31 50 50 9 20 30 41 50 51 24 11 40 28 50 55 9 21 23
38 31 38 21 0 158 138 180 180 22 43 97 125 147 162 21 15 47 47 59 70 12 24
39 58 60 76 21 18 41 41 44 52 4 11 19 27 35 35 16 8 39 34 52 57 13 24 36 49
52 56 17 9 35 31 47 57 10 23 34 54 54 69 22 17 39 41 46 67 8 25 26 51 49 69
22 17 44 48 54 73 10 27 26 48 41 55 29 14 65 68 65 99 0 15 11 27 37 40 31
15 40 27 53 67 11 36 23 54 46 68 30 18 64 78 64 112 0 8 16 23 35 35 38 22
50 44 60 104 5 30 14 43 40 58 38 23 58 63 53 110 -4 42 -21 47 -53 15z"/>
<path d="M51108 38040 c-14 -11 -31 -39 -38 -66 -10 -35 -22 -52 -46 -66 -29
-17 -43 -40 -58 -94 -4 -11 -22 -28 -41 -37 -27 -13 -38 -27 -52 -68 -11 -31
-29 -59 -47 -72 -16 -11 -38 -42 -50 -68 -13 -29 -35 -57 -56 -71 -22 -15 -40
-39 -51 -67 -11 -30 -25 -47 -47 -58 -22 -11 -36 -28 -48 -59 -10 -27 -28 -51
-45 -61 -28 -17 -49 -58 -49 -95 0 -34 55 5 74 52 10 26 29 48 49 60 33 20 57
56 57 85 0 8 17 23 38 32 28 14 43 31 61 69 13 29 36 58 52 68 19 11 32 31 40
59 15 51 26 66 57 78 14 6 32 28 46 62 15 33 33 57 49 64 27 13 49 48 61 96 4
16 17 33 32 39 32 15 54 56 54 103 0 40 -7 43 -42 15z"/>
<path d="M55185 37926 c-36 -55 -29 -201 11 -201 26 0 45 45 47 113 3 103 -23
142 -58 88z"/>
<path d="M52220 37927 c-14 -7 -36 -35 -51 -65 -15 -31 -39 -61 -56 -72 -17
-10 -37 -35 -46 -58 -9 -22 -30 -50 -47 -62 -17 -12 -38 -40 -47 -61 -8 -22
-28 -49 -44 -60 -16 -11 -43 -46 -58 -78 -17 -33 -40 -62 -54 -68 -14 -7 -33
-30 -43 -53 -10 -23 -32 -48 -50 -60 -18 -10 -42 -36 -53 -58 -13 -26 -31 -43
-51 -50 -22 -8 -36 -23 -49 -54 -10 -24 -32 -53 -50 -66 -17 -12 -38 -36 -46
-52 -8 -16 -29 -37 -45 -45 -18 -9 -40 -35 -55 -66 -17 -33 -70 -93 -156 -177
-72 -70 -134 -136 -139 -147 -23 -59 -22 -65 3 -65 17 0 41 19 84 68 33 37 66
78 73 92 21 40 122 148 163 176 21 14 46 42 56 62 18 39 121 151 157 170 12 6
30 32 40 56 13 31 29 49 51 60 19 9 40 31 52 54 11 21 32 47 46 56 15 10 35
37 45 60 11 23 33 52 50 65 18 13 41 42 51 66 10 23 35 55 54 69 19 15 41 42
49 59 7 18 30 45 50 61 20 15 44 44 52 65 8 20 28 45 44 55 36 20 45 37 55 94
7 45 4 48 -35 29z"/>
<path d="M50301 37793 c-12 -14 -24 -38 -28 -52 -3 -14 -25 -44 -49 -67 -36
-34 -44 -47 -44 -77 0 -64 46 -43 79 35 13 30 30 52 49 62 30 16 52 59 52 102
0 33 -33 31 -59 -3z"/>
<path d="M51307 37808 c-9 -7 -25 -34 -36 -60 -13 -30 -30 -52 -49 -62 -16 -8
-36 -32 -46 -55 -10 -22 -35 -53 -56 -70 -25 -20 -41 -44 -49 -73 -9 -30 -22
-49 -44 -63 -18 -11 -41 -39 -52 -63 -11 -24 -35 -51 -54 -63 -20 -12 -39 -35
-48 -59 -10 -25 -29 -47 -50 -60 -21 -12 -41 -36 -51 -60 -11 -24 -27 -44 -44
-51 -17 -7 -34 -27 -45 -51 -11 -26 -29 -45 -51 -55 -24 -12 -40 -29 -54 -62
-19 -44 -40 -70 -139 -170 -67 -67 -90 -121 -51 -121 26 1 47 20 70 67 12 23
30 48 41 55 10 7 28 29 40 48 11 19 38 46 58 60 21 14 48 45 61 70 12 25 38
59 57 75 19 17 39 42 45 58 5 16 24 34 44 44 24 11 40 28 50 53 9 23 28 45 51
59 22 13 42 35 52 58 8 21 31 51 49 68 19 16 40 47 47 67 7 23 25 46 47 60 19
13 44 42 56 66 11 24 35 52 53 63 19 11 39 37 50 62 10 24 31 51 46 61 26 17
55 70 55 101 0 18 -30 20 -53 3z"/>
<path d="M50602 37798 c-6 -8 -20 -35 -31 -60 -13 -30 -30 -52 -49 -62 -27
-14 -41 -37 -57 -93 -3 -12 -20 -32 -36 -44 -17 -12 -41 -45 -54 -75 -13 -30
-28 -54 -33 -54 -18 0 -61 -52 -67 -81 -4 -19 -21 -38 -48 -57 -32 -21 -44
-38 -54 -72 -9 -32 -22 -50 -42 -61 -19 -11 -34 -32 -44 -63 -16 -47 -16 -47
6 -44 15 2 30 20 49 57 16 30 41 62 57 72 34 21 57 52 66 91 5 18 17 30 36 37
23 8 36 24 54 65 17 37 34 60 54 71 22 11 34 27 42 58 7 23 24 52 38 65 52 45
58 53 69 91 9 27 20 42 41 51 32 13 65 66 60 95 -5 24 -41 32 -57 13z"/>
<path d="M54388 37713 c-9 -10 -21 -44 -28 -76 -10 -48 -17 -62 -40 -75 -36
-21 -50 -51 -50 -107 0 -38 3 -45 20 -45 27 0 49 38 59 101 5 29 13 55 17 56
40 14 61 34 73 69 25 72 -9 124 -51 77z"/>
<path d="M52492 37697 c-12 -13 -26 -36 -32 -53 -6 -16 -24 -38 -41 -48 -20
-12 -38 -36 -50 -65 -12 -29 -31 -52 -50 -63 -16 -10 -36 -33 -44 -51 -8 -19
-30 -46 -49 -61 -20 -15 -43 -41 -52 -59 -10 -18 -36 -50 -59 -72 -29 -27 -47
-54 -55 -83 -9 -34 -17 -46 -41 -54 -19 -6 -37 -24 -50 -49 -10 -21 -23 -39
-28 -39 -20 0 -70 -52 -76 -80 -4 -19 -15 -32 -34 -38 -16 -6 -41 -26 -56 -46
-15 -20 -42 -45 -60 -56 -21 -13 -38 -34 -45 -56 -8 -23 -24 -43 -46 -56 -20
-12 -38 -33 -46 -54 -7 -21 -21 -37 -34 -40 -26 -7 -59 -41 -68 -70 -4 -12
-23 -28 -45 -36 -30 -12 -41 -24 -51 -52 -8 -24 -19 -38 -35 -42 -27 -7 -60
-40 -69 -71 -4 -12 -17 -25 -29 -29 -31 -9 -64 -42 -71 -70 -4 -14 -16 -26
-31 -30 -27 -7 -65 -48 -65 -70 0 -25 38 -15 64 17 14 17 26 37 26 44 0 7 16
19 34 25 25 8 40 22 53 49 12 27 28 42 51 51 22 8 39 24 50 47 10 21 31 42 53
53 21 11 43 33 52 53 10 20 29 40 47 47 19 8 39 28 50 50 12 24 29 40 45 44
14 4 36 24 51 45 14 22 39 45 55 51 16 7 39 29 51 49 12 20 35 47 51 60 16 13
36 39 43 58 9 21 26 38 48 47 21 9 42 28 52 48 9 18 34 49 55 69 22 20 39 45
39 56 0 14 13 26 40 38 31 14 45 29 61 66 12 26 35 57 50 68 16 12 40 43 53
70 14 26 37 56 51 65 15 10 35 36 45 58 12 27 29 45 49 54 20 9 38 28 53 58
12 25 30 49 41 52 44 14 79 124 39 124 -10 0 -28 -10 -40 -23z"/>
<path d="M55385 37644 c-10 -21 -20 -68 -22 -104 -8 -110 31 -161 64 -83 20
48 14 186 -9 209 -13 14 -17 11 -33 -22z"/>
<path d="M53890 37638 c-11 -12 -20 -27 -20 -32 0 -38 -24 -88 -45 -96 -32
-12 -58 -54 -65 -104 -4 -30 -10 -42 -25 -44 -31 -6 -46 -23 -71 -78 -13 -29
-36 -61 -53 -73 -19 -14 -35 -39 -46 -70 -12 -38 -23 -52 -47 -62 -21 -8 -37
-26 -49 -55 -10 -23 -34 -53 -54 -68 -22 -17 -39 -41 -47 -67 -8 -28 -23 -48
-45 -63 -18 -11 -43 -41 -57 -66 -14 -25 -39 -55 -55 -68 -17 -13 -39 -39 -49
-59 -9 -20 -30 -44 -46 -53 -16 -9 -38 -32 -49 -53 -10 -20 -32 -45 -47 -54
-16 -9 -36 -34 -46 -54 -9 -21 -26 -41 -37 -45 -28 -9 -144 -129 -166 -173
-11 -20 -115 -135 -233 -255 -159 -163 -229 -227 -279 -256 -36 -22 -70 -50
-77 -64 -6 -14 -29 -36 -51 -50 -26 -16 -43 -37 -51 -60 -8 -26 -18 -36 -41
-41 -17 -4 -42 -23 -60 -45 -17 -21 -44 -44 -60 -51 -51 -20 -68 -79 -24 -79
28 0 157 120 169 157 4 12 21 26 38 32 42 15 83 52 411 372 395 387 424 418
443 466 11 29 25 45 46 54 16 7 41 29 54 49 14 20 36 42 50 49 15 6 33 30 45
56 12 26 30 49 46 57 15 7 37 29 49 48 13 19 30 42 39 50 55 52 64 64 70 91 4
16 23 41 45 59 21 16 45 48 54 70 9 23 27 45 44 54 27 14 42 35 62 89 5 15 20
31 32 36 31 12 55 40 63 74 4 15 25 44 46 64 31 30 40 46 45 86 6 44 11 51 40
63 39 16 61 46 70 93 5 23 17 39 40 53 36 21 40 27 49 92 7 42 6 46 -13 46
-12 0 -30 -10 -42 -22z"/>
<path d="M52908 37610 c-14 -10 -33 -38 -42 -62 -10 -27 -29 -51 -49 -63 -18
-11 -40 -38 -50 -60 -10 -22 -32 -48 -48 -58 -17 -9 -38 -35 -49 -60 -10 -23
-33 -53 -50 -66 -17 -12 -40 -42 -50 -65 -10 -24 -32 -53 -50 -66 -17 -12 -42
-40 -55 -61 -14 -21 -38 -45 -55 -54 -16 -8 -39 -33 -49 -54 -11 -20 -36 -50
-55 -65 -20 -15 -39 -38 -42 -51 -3 -13 -15 -27 -25 -30 -28 -9 -79 -54 -79
-70 0 -7 -16 -28 -35 -46 -18 -18 -39 -45 -46 -61 -7 -17 -28 -37 -49 -48 -22
-11 -42 -31 -50 -50 -8 -19 -28 -39 -50 -50 -22 -11 -42 -31 -50 -50 -8 -19
-28 -39 -51 -50 -26 -14 -41 -30 -48 -53 -9 -26 -21 -38 -50 -49 -29 -12 -41
-24 -50 -50 -9 -27 -21 -39 -50 -50 -30 -12 -41 -24 -50 -51 -9 -27 -20 -39
-46 -47 -25 -8 -39 -22 -51 -50 -13 -29 -27 -43 -51 -51 -19 -6 -39 -22 -47
-38 -8 -15 -33 -36 -56 -46 -28 -13 -48 -31 -61 -56 -10 -21 -28 -40 -39 -44
-23 -7 -60 -51 -60 -71 0 -29 49 -15 77 22 15 19 45 44 65 55 21 11 46 32 55
47 10 15 37 45 60 68 24 22 43 48 43 57 0 9 7 17 16 17 20 0 84 63 84 83 0 9
15 20 33 26 22 8 41 24 55 50 13 22 35 44 52 51 19 8 39 28 50 50 11 22 31 42
50 50 17 7 38 27 48 46 10 19 33 42 51 52 19 10 43 34 52 52 10 18 32 39 48
46 18 8 38 29 50 53 11 22 29 42 39 46 31 9 151 128 162 161 6 17 24 37 43 47
19 10 41 31 51 48 9 16 30 36 47 44 17 9 39 35 53 63 14 27 36 53 50 60 16 7
34 29 45 54 10 24 33 53 50 66 18 13 41 43 50 66 10 23 34 53 53 68 19 14 42
43 52 65 9 21 32 47 49 58 18 11 40 36 50 57 10 20 33 48 52 62 34 26 61 85
51 111 -7 20 -18 19 -48 -5z"/>
<path d="M54698 37500 c-26 -20 -48 -83 -48 -137 0 -21 -9 -34 -35 -50 -24
-16 -37 -34 -45 -64 -14 -51 -6 -89 19 -89 28 0 49 31 62 90 9 44 19 62 51 90
36 32 40 40 45 95 7 76 -9 97 -49 65z"/>
<path d="M54098 37201 c-14 -12 -31 -40 -38 -66 -9 -33 -21 -50 -41 -61 -35
-18 -49 -43 -49 -88 0 -28 4 -36 18 -36 26 0 48 28 62 78 8 33 18 46 45 59 41
19 58 49 53 93 -4 41 -17 47 -50 21z"/>
<path d="M50417 37109 c-9 -6 -28 -32 -42 -58 -17 -34 -32 -51 -50 -55 -20 -5
-33 -21 -51 -61 -13 -30 -30 -55 -38 -55 -17 0 -66 -56 -66 -76 0 -8 -15 -24
-34 -35 -20 -11 -40 -35 -48 -55 -9 -22 -27 -41 -49 -52 -24 -12 -41 -32 -59
-69 -14 -28 -35 -62 -47 -76 -35 -36 -27 -43 11 -11 18 16 47 36 63 45 19 10
38 35 52 65 14 30 34 56 52 66 16 10 38 33 50 52 11 19 29 38 40 41 22 7 59
61 59 86 0 9 17 22 40 32 32 12 44 24 59 61 12 28 31 51 48 60 30 15 53 53 53
86 0 22 -15 25 -43 9z"/>
<path d="M54502 37104 c-13 -9 -28 -38 -38 -72 -12 -41 -27 -67 -54 -92 -27
-25 -40 -47 -45 -75 -10 -61 -12 -64 -49 -81 -37 -18 -53 -44 -62 -104 -5 -31
-14 -44 -39 -59 -24 -14 -37 -32 -50 -70 -13 -40 -24 -54 -50 -67 -25 -12 -39
-28 -55 -69 -12 -30 -33 -61 -47 -70 -14 -9 -35 -41 -48 -70 -15 -34 -35 -60
-54 -71 -20 -12 -37 -34 -48 -62 -12 -32 -25 -47 -50 -57 -24 -10 -39 -26 -52
-57 -10 -24 -33 -54 -51 -66 -17 -13 -39 -40 -47 -60 -18 -43 -89 -125 -144
-165 -27 -20 -44 -43 -56 -79 -14 -39 -25 -53 -50 -63 -17 -7 -43 -32 -57 -54
-14 -22 -38 -47 -54 -55 -15 -8 -34 -25 -41 -39 -7 -13 -30 -34 -51 -46 -21
-12 -47 -36 -58 -55 -11 -18 -33 -42 -50 -51 -16 -10 -37 -31 -47 -47 -9 -17
-31 -38 -49 -49 -17 -10 -40 -33 -50 -51 -11 -18 -38 -52 -60 -75 -23 -22 -48
-49 -58 -60 -9 -10 -28 -26 -43 -37 -15 -10 -33 -34 -41 -52 -10 -23 -21 -34
-35 -34 -34 0 -78 -29 -110 -73 -39 -53 -112 -114 -166 -139 -26 -11 -49 -31
-58 -49 -9 -17 -33 -38 -59 -49 -28 -14 -48 -32 -59 -54 -11 -24 -27 -38 -52
-46 -25 -8 -41 -23 -55 -50 -14 -27 -30 -42 -55 -50 -52 -17 -89 -80 -47 -80
27 0 79 36 87 60 4 13 25 29 51 40 31 14 49 29 61 54 11 24 25 37 44 41 28 6
55 31 73 67 6 12 30 28 53 36 25 8 52 26 65 44 44 59 112 119 172 151 49 26
63 39 72 66 8 26 20 38 44 46 35 12 70 48 70 72 0 8 16 21 35 29 19 8 44 27
57 44 12 16 30 33 41 36 27 9 260 242 280 279 8 17 27 37 40 44 14 8 31 27 38
43 7 16 30 41 51 54 23 15 46 40 54 59 9 22 23 37 39 41 27 7 75 57 75 78 0 7
15 30 33 52 18 21 40 51 49 65 9 15 33 37 54 49 21 14 44 39 54 61 9 22 32 49
51 61 19 13 43 42 55 66 11 24 34 51 51 61 17 11 37 36 46 58 8 22 31 51 49
65 22 16 39 41 46 66 8 27 26 51 52 72 28 22 43 44 52 78 10 34 21 51 41 60
33 16 53 46 61 93 5 27 16 42 44 60 30 20 40 34 51 78 12 42 21 58 47 73 33
19 48 48 58 108 4 26 15 41 36 53 35 21 60 64 60 105 0 41 -20 56 -48 36z"/>
<path d="M55490 37091 c-19 -36 -34 -164 -24 -206 12 -50 44 -60 62 -20 23 51
9 245 -18 245 -5 0 -14 -9 -20 -19z"/>
<path d="M53897 36900 c-14 -11 -31 -36 -37 -54 -6 -19 -27 -47 -47 -62 -19
-14 -42 -43 -50 -63 -8 -20 -30 -48 -48 -63 -24 -20 -36 -42 -45 -78 -10 -42
-17 -53 -47 -67 -25 -11 -41 -29 -54 -59 -12 -26 -32 -50 -54 -63 -19 -11 -42
-36 -52 -55 -9 -20 -29 -40 -46 -47 -20 -8 -36 -27 -48 -54 -10 -22 -36 -55
-58 -73 -22 -17 -42 -41 -46 -51 -3 -11 -21 -29 -40 -40 -20 -12 -44 -39 -59
-68 -38 -73 -632 -671 -711 -715 -57 -32 -90 -76 -72 -94 16 -16 87 18 114 53
16 20 41 48 57 62 16 14 163 159 326 322 164 162 310 303 324 312 14 10 37 39
51 66 13 27 38 59 54 71 17 11 38 34 48 51 10 16 33 39 51 50 21 12 40 34 49
59 10 25 28 47 49 59 18 11 40 36 48 55 8 20 28 41 45 50 34 18 45 36 55 86 5
26 15 39 38 51 19 9 41 32 53 58 12 23 38 55 57 71 20 16 43 48 52 70 9 24 26
44 39 49 29 11 46 31 57 71 17 58 -7 76 -53 40z"/>
<path d="M55586 36620 c-32 -82 -14 -214 33 -240 30 -15 35 4 36 120 0 144
-35 205 -69 120z"/>
<path d="M50297 36570 c-14 -11 -29 -29 -32 -40 -4 -11 -21 -27 -39 -34 -19
-8 -42 -26 -52 -41 -11 -15 -36 -45 -56 -67 -40 -43 -51 -88 -21 -88 9 0 35
20 57 44 23 24 51 49 63 55 12 6 29 31 38 56 10 24 26 47 36 50 22 7 59 52 59
71 0 20 -23 17 -53 -6z"/>
<path d="M54515 36348 c-32 -19 -43 -40 -51 -95 -5 -41 -10 -53 -24 -53 -31 0
-67 -38 -80 -84 -8 -29 -22 -51 -39 -62 -32 -21 -42 -36 -61 -93 -10 -31 -24
-50 -45 -61 -17 -9 -39 -35 -51 -59 -11 -24 -35 -54 -52 -67 -17 -13 -38 -44
-47 -69 -10 -25 -32 -55 -50 -69 -18 -14 -42 -45 -53 -69 -11 -24 -36 -55 -55
-70 -19 -14 -39 -38 -46 -54 -7 -15 -27 -37 -44 -48 -18 -11 -41 -37 -52 -57
-10 -20 -34 -43 -52 -52 -23 -11 -38 -29 -49 -56 -10 -25 -28 -47 -45 -56 -16
-8 -38 -32 -49 -53 -12 -25 -30 -43 -49 -49 -20 -7 -37 -25 -51 -51 -11 -23
-25 -41 -31 -41 -17 0 -356 -344 -364 -369 -4 -13 -22 -28 -45 -37 -27 -11
-42 -26 -54 -53 -13 -27 -27 -41 -52 -50 -19 -7 -39 -21 -44 -31 -6 -11 -31
-33 -55 -50 -26 -18 -51 -46 -59 -65 -10 -24 -23 -35 -45 -40 -20 -4 -44 -22
-64 -47 -17 -22 -45 -47 -60 -55 -16 -8 -35 -29 -42 -47 -11 -25 -25 -37 -59
-50 -42 -16 -86 -56 -86 -78 0 -13 58 0 88 19 13 8 27 25 32 39 6 15 26 32 54
44 25 10 52 31 62 45 9 14 34 35 55 45 26 14 41 30 49 54 9 27 19 38 45 45 33
9 134 101 168 154 10 15 28 32 41 37 26 9 66 56 66 75 0 7 20 20 44 29 53 20
317 269 346 327 11 21 35 50 54 64 19 14 39 39 46 56 7 16 26 37 41 45 16 8
39 28 51 44 12 17 37 39 55 50 20 12 39 35 49 59 10 25 29 48 50 60 19 11 41
36 50 55 9 19 27 40 40 47 13 7 33 32 45 56 12 25 34 50 51 59 19 10 38 34 54
68 14 31 35 58 51 67 16 8 35 35 49 66 15 34 33 57 52 67 26 13 62 68 62 93 0
5 18 24 40 42 31 25 41 41 46 73 7 41 19 57 67 90 17 12 29 34 37 68 9 36 19
54 34 60 36 14 56 45 63 99 6 53 2 58 -32 39z"/>
<path d="M54792 36095 c-11 -14 -23 -39 -26 -55 -3 -17 -9 -43 -12 -59 -3 -20
-14 -33 -35 -41 -31 -13 -51 -43 -63 -95 -4 -16 -25 -46 -47 -66 -35 -33 -39
-42 -39 -83 0 -26 5 -46 11 -46 27 0 49 24 64 70 12 35 26 55 49 69 34 22 56
57 56 94 0 42 12 65 36 71 35 9 56 49 58 108 1 62 -19 75 -52 33z"/>
<path d="M50599 36075 c-14 -8 -32 -28 -39 -44 -8 -21 -23 -34 -47 -42 -44
-14 -170 -133 -201 -190 -13 -23 -18 -38 -10 -33 73 44 124 80 131 90 4 8 28
27 52 44 27 19 48 43 56 65 9 24 20 36 40 40 30 7 53 29 63 63 9 26 -6 28 -45
7z"/>
<path d="M50915 35958 c-11 -6 -26 -20 -33 -30 -7 -10 -32 -28 -54 -39 -29
-15 -44 -31 -55 -58 -10 -26 -26 -43 -49 -54 -20 -10 -39 -29 -47 -48 -9 -23
-24 -36 -57 -48 -30 -11 -49 -26 -60 -46 -8 -17 -22 -34 -30 -39 -28 -18 -60
-55 -60 -71 0 -27 32 -16 69 23 20 21 50 44 68 51 22 9 36 25 47 52 9 22 24
42 34 45 35 11 47 21 64 54 12 23 29 37 55 46 21 7 45 23 53 35 8 12 34 40 58
62 57 55 56 98 -3 65z"/>
<path d="M54990 35720 c-11 -11 -22 -31 -25 -45 -3 -14 -8 -37 -11 -52 -3 -15
-23 -44 -45 -64 -37 -34 -39 -40 -39 -92 0 -32 4 -57 9 -57 4 0 20 9 34 21 20
15 28 33 33 71 7 50 17 66 67 100 27 19 40 63 31 108 -7 35 -26 38 -54 10z"/>
<path d="M54490 35600 c-11 -11 -25 -39 -31 -63 -8 -33 -18 -47 -44 -61 -35
-19 -55 -52 -55 -91 0 -25 -4 -29 -54 -67 -15 -11 -36 -40 -46 -63 -11 -26
-32 -51 -53 -64 -22 -14 -40 -35 -47 -56 -6 -19 -25 -44 -41 -56 -16 -11 -39
-39 -50 -61 -11 -22 -38 -57 -60 -78 -21 -20 -39 -44 -39 -53 0 -8 -22 -34
-49 -56 -28 -24 -55 -58 -65 -81 -9 -24 -27 -45 -45 -54 -16 -9 -39 -29 -51
-46 -11 -16 -34 -37 -50 -47 -17 -10 -37 -35 -47 -59 -12 -29 -28 -47 -50 -58
-19 -9 -40 -30 -49 -50 -10 -19 -31 -40 -50 -50 -20 -9 -41 -30 -50 -50 -10
-19 -31 -40 -50 -50 -20 -9 -41 -30 -50 -50 -10 -19 -31 -40 -51 -50 -22 -10
-39 -29 -49 -51 -9 -23 -25 -40 -47 -49 -19 -7 -45 -27 -58 -44 -13 -16 -39
-37 -56 -46 -18 -9 -41 -33 -52 -54 -10 -20 -33 -45 -50 -55 -16 -10 -39 -31
-51 -46 -11 -16 -41 -39 -66 -51 -25 -13 -55 -37 -66 -54 -12 -18 -43 -44 -70
-59 -27 -15 -54 -39 -60 -53 -8 -16 -30 -34 -56 -45 -31 -14 -47 -28 -55 -49
-9 -23 -21 -33 -48 -40 -40 -11 -63 -33 -72 -67 -4 -18 -1 -23 14 -23 38 0 79
30 86 61 4 21 14 34 32 40 50 18 69 31 80 55 6 14 30 33 55 44 25 10 57 33 73
51 15 17 48 41 73 53 24 11 55 37 68 56 13 19 38 43 56 52 18 9 37 28 44 43 7
15 29 33 56 44 26 12 51 32 64 53 11 18 34 41 50 50 16 10 35 31 42 48 8 19
27 38 49 48 22 11 42 30 52 51 9 20 30 41 50 50 20 10 40 30 50 50 9 20 30 41
50 50 19 9 41 30 49 48 8 17 30 39 48 47 18 9 42 31 53 50 11 19 35 44 54 55
18 11 41 32 51 48 10 15 32 44 50 63 17 19 35 45 39 58 3 12 24 31 46 43 30
15 45 32 59 65 11 25 34 57 50 71 17 14 39 42 49 62 11 20 33 46 50 59 17 12
40 41 51 63 12 22 33 45 47 52 16 7 35 31 49 60 13 29 35 57 53 68 33 20 51
54 51 94 0 19 10 30 40 45 34 17 42 28 55 75 13 43 22 56 41 61 36 9 64 51 64
95 0 32 -3 39 -20 39 -11 0 -29 -9 -40 -20z"/>
<path d="M51409 35465 c-14 -7 -30 -25 -37 -39 -6 -14 -29 -34 -50 -45 -26
-13 -43 -31 -50 -50 -7 -21 -23 -35 -55 -49 -32 -14 -47 -28 -55 -51 -10 -29
-9 -31 12 -31 28 0 72 33 81 61 4 11 26 29 49 40 24 11 49 31 57 45 7 14 26
32 41 40 37 19 68 54 68 76 0 22 -25 23 -61 3z"/>
<path d="M48032 35208 c-7 -7 -12 -22 -12 -34 0 -16 -87 -111 -292 -321 -161
-164 -307 -309 -324 -323 -16 -14 -73 -70 -125 -124 -52 -55 -110 -114 -129
-130 -19 -17 -51 -48 -70 -68 -19 -20 -55 -48 -79 -60 -59 -31 -71 -51 -47
-77 10 -11 16 -27 13 -34 -8 -21 9 -147 22 -160 17 -17 39 10 55 68 13 42 22
55 46 65 35 14 60 45 60 74 0 21 27 45 52 46 25 0 48 39 48 79 0 30 9 44 63
94 34 33 79 70 100 84 25 16 40 33 43 53 6 30 117 170 135 170 5 0 25 22 44
48 19 27 46 55 61 63 15 7 37 31 50 51 13 21 38 44 54 53 17 9 83 68 148 131
64 64 131 125 147 137 58 41 58 55 3 96 -47 35 -49 36 -66 19z"/>
<path d="M52324 35170 c-12 -5 -31 -22 -43 -38 -12 -17 -38 -39 -59 -49 -22
-11 -44 -32 -54 -53 -10 -19 -32 -41 -50 -50 -18 -8 -43 -31 -56 -50 -13 -19
-38 -43 -56 -52 -19 -10 -43 -33 -54 -52 -13 -22 -30 -36 -50 -41 -32 -7 -82
-46 -82 -65 0 -13 46 -13 71 1 11 5 29 25 39 42 11 18 34 36 52 43 18 6 42 24
53 42 11 17 37 38 58 48 25 11 45 31 57 55 14 26 27 38 50 42 16 4 40 18 53
32 12 14 41 44 64 68 64 65 67 102 7 77z"/>
<path d="M54602 35055 c-12 -9 -28 -38 -37 -69 -12 -42 -23 -58 -52 -77 -25
-17 -41 -37 -51 -66 -8 -26 -26 -51 -44 -64 -17 -12 -41 -45 -53 -73 -14 -32
-33 -57 -50 -66 -18 -9 -37 -35 -51 -66 -13 -29 -37 -62 -55 -74 -17 -13 -38
-38 -45 -56 -8 -19 -30 -44 -49 -56 -20 -13 -41 -39 -50 -61 -9 -23 -29 -46
-51 -59 -22 -13 -44 -39 -61 -72 -14 -28 -64 -89 -112 -138 -119 -121 -178
-189 -190 -220 -5 -14 -22 -32 -38 -40 -15 -7 -39 -30 -53 -51 -14 -21 -37
-43 -50 -50 -13 -7 -36 -29 -50 -50 -14 -20 -40 -46 -58 -57 -18 -11 -39 -35
-47 -53 -11 -26 -23 -36 -55 -46 -31 -9 -68 -39 -148 -118 -159 -156 -184
-178 -220 -193 -18 -7 -40 -26 -48 -42 -9 -18 -32 -36 -59 -48 -28 -12 -50
-30 -60 -49 -8 -17 -34 -40 -56 -51 -22 -12 -49 -36 -60 -54 -13 -22 -34 -39
-64 -51 -45 -16 -75 -47 -75 -73 0 -11 9 -13 38 -7 46 8 80 29 93 58 5 12 29
30 53 40 28 12 49 29 61 50 10 20 32 39 56 49 23 10 47 30 58 50 11 18 36 42
56 52 19 11 45 34 56 53 12 18 35 41 52 50 18 8 57 39 88 67 69 63 124 107
166 131 17 10 39 36 49 56 12 28 26 41 51 50 24 7 39 22 51 46 10 21 31 42 53
53 21 11 41 32 49 50 8 19 28 39 50 50 22 11 42 31 50 50 8 19 28 39 51 51 21
10 45 32 53 47 8 16 31 41 50 56 20 15 43 41 52 58 25 49 95 130 146 170 34
27 51 49 59 79 10 30 23 48 52 66 22 14 45 39 53 58 8 19 27 41 44 50 18 9 39
34 51 58 12 24 34 50 49 59 19 11 34 33 47 68 12 33 30 60 51 77 19 14 42 44
52 67 9 23 34 54 54 69 26 20 39 40 47 72 8 34 19 49 44 64 24 14 37 31 44 58
22 78 10 100 -37 68z"/>
<path d="M51719 34665 c-14 -8 -32 -27 -38 -43 -8 -19 -24 -32 -54 -42 -32
-11 -46 -24 -60 -52 -12 -25 -27 -39 -46 -43 -55 -12 -97 -75 -50 -75 32 0 55
16 78 55 11 19 27 35 36 35 28 0 71 28 83 54 6 15 24 32 39 38 50 21 83 49 83
69 0 23 -32 25 -71 4z"/>
<path d="M55101 34569 c-11 -12 -27 -51 -35 -88 -8 -36 -20 -67 -26 -69 -28
-10 -68 -55 -74 -83 -8 -43 2 -79 24 -79 26 0 46 29 65 93 10 34 24 61 36 67
30 17 49 64 49 125 0 60 -8 67 -39 34z"/>
<path d="M54680 34488 c-11 -18 -22 -45 -26 -60 -3 -16 -18 -36 -32 -45 -41
-25 -52 -43 -52 -85 0 -30 4 -38 18 -38 26 0 48 28 61 76 8 31 18 44 46 57 37
18 55 49 55 98 0 24 -4 29 -25 29 -18 0 -31 -10 -45 -32z"/>
<path d="M54481 34195 c-11 -14 -23 -39 -26 -56 -4 -18 -17 -35 -36 -44 -29
-16 -51 -49 -63 -97 -4 -17 -18 -34 -37 -44 -21 -10 -38 -32 -54 -67 -13 -29
-37 -62 -55 -75 -17 -13 -38 -39 -46 -58 -8 -19 -31 -44 -53 -58 -22 -14 -43
-38 -49 -55 -6 -18 -26 -40 -46 -51 -21 -13 -40 -36 -50 -60 -10 -24 -27 -45
-46 -55 -16 -9 -41 -33 -55 -54 -13 -22 -34 -42 -45 -46 -11 -4 -34 -31 -51
-60 -43 -76 -458 -493 -522 -525 -33 -16 -54 -35 -67 -60 -11 -21 -32 -42 -54
-52 -19 -10 -42 -31 -50 -47 -10 -18 -29 -34 -51 -41 -23 -8 -44 -25 -60 -49
-13 -21 -39 -47 -59 -59 -19 -11 -42 -34 -50 -51 -10 -19 -33 -37 -59 -49 -30
-13 -47 -29 -56 -51 -8 -17 -17 -31 -22 -31 -25 0 -101 -46 -115 -69 -11 -19
-30 -31 -60 -39 -34 -9 -49 -21 -69 -52 -14 -22 -30 -40 -36 -40 -30 0 -83
-36 -95 -66 -11 -26 -24 -36 -64 -49 -52 -17 -81 -48 -61 -68 18 -18 84 8 104
43 10 16 30 33 45 36 49 12 79 33 91 62 8 20 28 36 63 52 36 16 54 31 63 54
10 24 24 36 56 46 24 8 52 28 68 47 14 19 45 42 67 52 23 11 52 33 65 51 13
18 40 38 60 46 19 8 43 28 53 45 9 16 34 37 54 47 20 9 47 32 59 51 13 19 38
44 56 56 18 13 38 34 46 48 7 13 35 35 63 48 27 13 58 36 69 51 23 32 470 477
512 508 15 12 38 41 52 65 14 24 32 46 40 49 8 3 28 26 45 52 16 26 43 55 59
65 17 10 37 34 45 53 8 20 28 42 45 51 17 8 40 33 51 55 11 22 32 47 46 56 14
10 36 38 49 63 12 25 37 56 54 69 20 15 35 38 44 70 11 38 21 50 49 64 27 13
40 29 54 63 11 30 27 51 45 60 38 20 59 53 59 92 0 28 -4 33 -24 33 -14 0 -33
-11 -45 -25z"/>
<path d="M54786 34001 c-11 -12 -24 -43 -30 -70 -9 -39 -18 -55 -45 -73 -24
-16 -39 -38 -50 -70 -10 -28 -31 -61 -52 -80 -21 -20 -41 -50 -47 -72 -7 -22
-26 -51 -47 -69 -26 -23 -40 -46 -49 -82 -10 -42 -18 -53 -48 -67 -26 -13 -40
-29 -57 -67 -14 -33 -32 -56 -50 -65 -18 -10 -35 -31 -46 -58 -9 -24 -34 -59
-55 -80 -35 -34 -61 -100 -46 -116 15 -14 59 22 77 63 11 24 36 57 56 72 19
15 44 46 54 70 11 26 29 48 48 58 32 16 61 61 61 93 0 10 17 33 38 49 23 19
45 49 56 76 9 25 28 53 42 62 14 9 37 41 50 70 13 30 39 69 59 87 28 27 36 43
43 87 7 51 9 55 39 63 43 11 65 46 61 95 -2 29 -8 39 -24 41 -11 2 -28 -6 -38
-17z"/>
<path d="M46847 33993 c-4 -3 -7 -14 -7 -24 0 -19 -19 -29 -56 -29 -16 0 -37
-13 -57 -34 -18 -19 -48 -41 -68 -49 -23 -10 -40 -25 -49 -46 -8 -20 -27 -39
-51 -52 -21 -10 -46 -30 -55 -44 -8 -13 -31 -33 -50 -44 -19 -11 -44 -36 -55
-55 -11 -19 -30 -38 -42 -42 -12 -4 -46 -32 -77 -63 -31 -31 -72 -65 -91 -76
-18 -11 -40 -33 -47 -48 -8 -16 -21 -27 -33 -27 -40 0 -86 -27 -93 -54 -5 -20
-19 -32 -51 -46 -27 -12 -50 -30 -57 -45 -6 -14 -33 -37 -60 -52 -26 -14 -50
-34 -53 -44 -3 -10 -27 -31 -53 -46 -25 -15 -65 -47 -89 -70 -30 -30 -51 -43
-71 -43 -34 0 -58 -16 -75 -50 -7 -14 -30 -33 -51 -43 -24 -12 -42 -29 -49
-48 -11 -28 -77 -69 -113 -69 -26 0 -53 -19 -68 -48 -10 -20 -27 -31 -59 -39
-38 -10 -46 -17 -52 -41 -6 -30 -14 -36 -107 -76 -38 -16 -62 -34 -70 -50 -7
-17 -19 -26 -33 -26 -45 0 -85 -21 -85 -44 0 -12 -6 -29 -12 -38 -16 -19 -71
-38 -110 -38 -41 0 -64 -15 -76 -49 -9 -25 -19 -33 -56 -42 -34 -8 -46 -17
-50 -35 -9 -33 -79 -76 -111 -68 -46 11 -72 -2 -82 -43 -9 -41 -39 -63 -85
-63 -16 0 -28 -4 -28 -9 0 -5 -18 -11 -40 -15 -34 -5 -40 -10 -40 -31 0 -26
-25 -45 -59 -45 -12 0 -21 -7 -21 -15 0 -8 -9 -15 -20 -15 -15 0 -20 -7 -20
-25 0 -20 -5 -25 -25 -25 -14 0 -25 -4 -25 -10 0 -11 33 -13 78 -4 20 4 29 11
25 19 -4 12 39 45 44 34 1 -2 11 4 23 13 11 10 20 13 20 7 0 -5 6 -7 12 -3 7
5 20 9 29 9 29 2 69 34 69 55 0 13 7 20 20 21 29 2 33 3 50 14 8 5 21 10 29
12 8 1 27 11 42 22 16 12 37 21 48 21 11 0 27 7 35 16 9 8 16 12 16 8 0 -4 10
2 23 13 44 39 121 83 145 83 14 0 39 10 56 23 17 12 43 28 59 35 15 6 27 16
27 21 0 17 29 20 60 5 39 -20 60 -12 60 21 0 15 11 36 24 48 14 12 39 35 56
51 19 18 50 32 78 38 45 8 102 49 102 73 0 7 9 20 19 29 16 14 30 17 68 11 30
-4 60 -2 78 6 17 7 33 12 38 11 4 -1 7 2 7 8 0 5 -4 10 -10 10 -19 0 -10 40
18 79 22 31 38 42 82 54 63 18 87 10 92 -30 2 -19 10 -29 23 -31 20 -3 21 2
21 89 l0 92 49 43 c56 48 87 55 120 24 l22 -20 12 23 c7 14 27 30 44 38 34 16
40 25 56 86 21 79 90 130 139 104 11 -6 24 -28 29 -48 12 -54 27 -47 35 15 4
35 14 62 29 78 14 15 18 24 9 24 -7 0 1 12 18 28 16 15 35 43 41 63 6 20 23
47 38 60 14 13 32 39 39 57 14 31 17 32 70 32 48 0 60 -4 81 -26 40 -43 64
-30 83 44 10 41 23 69 38 80 12 10 24 31 26 47 6 44 71 150 109 177 17 12 43
36 57 52 14 17 37 43 51 59 29 31 53 138 26 110z"/>
<path d="M52357 33985 c-45 -16 -63 -30 -80 -63 -6 -14 -25 -30 -42 -35 -37
-12 -65 -35 -76 -64 -4 -12 -28 -30 -53 -41 -50 -23 -77 -58 -51 -68 28 -11
66 6 86 40 13 22 34 39 62 50 26 10 50 28 61 46 9 17 39 42 66 55 49 25 74 54
68 80 -2 11 -9 11 -41 0z"/>
<path d="M55083 33974 c-9 -14 -19 -56 -22 -92 -5 -59 -9 -68 -32 -79 -43 -21
-59 -47 -70 -114 -6 -35 -11 -64 -12 -64 -37 -20 -69 -53 -78 -83 -13 -44 -9
-94 8 -99 24 -8 60 42 67 93 8 58 11 63 49 88 33 20 52 60 61 129 6 38 13 50
35 62 58 29 83 185 31 185 -11 0 -27 -12 -37 -26z"/>
<path d="M55289 33908 c-6 -11 -12 -43 -12 -69 -1 -41 5 -57 40 -106 28 -40
49 -59 65 -61 58 -7 72 77 21 130 -22 23 -33 47 -38 81 -7 43 -9 47 -36 47
-19 0 -32 -7 -40 -22z"/>
<path d="M55207 33676 c-22 -22 -29 -52 -25 -106 2 -36 8 -46 33 -60 17 -9 31
-25 33 -36 13 -82 61 -108 77 -42 7 27 7 27 -54 80 -16 14 -18 26 -14 75 4 47
2 62 -14 82 -18 22 -20 22 -36 7z"/>
<path d="M54807 33409 c-23 -13 -43 -55 -52 -106 -5 -33 -13 -46 -40 -62 -27
-16 -37 -31 -50 -74 -12 -43 -23 -59 -52 -78 -55 -36 -73 -129 -25 -129 26 0
49 28 68 83 9 26 26 53 41 62 27 18 53 71 53 110 0 18 11 31 40 50 29 19 42
35 50 66 19 69 6 100 -33 78z"/>
<path d="M54109 33005 c-14 -7 -34 -30 -45 -50 -10 -20 -33 -44 -51 -55 -18
-10 -39 -35 -47 -54 -10 -23 -27 -42 -50 -52 -22 -11 -40 -30 -52 -55 -9 -22
-33 -51 -51 -65 -19 -15 -39 -39 -45 -55 -5 -15 -18 -31 -29 -34 -21 -7 -469
-452 -469 -466 0 -5 -18 -20 -40 -34 -23 -15 -46 -39 -54 -60 -10 -22 -24 -37
-40 -41 -14 -3 -40 -24 -57 -45 -17 -22 -46 -46 -64 -53 -23 -10 -37 -25 -46
-50 -11 -29 -20 -38 -51 -47 -27 -7 -46 -21 -63 -48 -14 -20 -41 -45 -60 -54
-19 -9 -46 -35 -60 -57 -14 -22 -33 -40 -43 -40 -26 0 -82 -38 -82 -55 0 -38
93 -6 109 38 4 11 26 27 51 36 29 10 53 29 67 50 13 19 41 42 62 52 28 12 43
27 52 52 9 27 20 37 42 41 33 7 177 145 177 170 0 7 12 17 26 20 14 4 44 24
67 44 23 21 59 50 79 65 43 32 277 263 355 351 29 33 57 73 63 91 7 21 22 37
44 48 19 9 42 28 51 44 9 15 31 37 48 48 18 11 42 39 55 63 13 23 36 49 52 57
16 8 32 25 36 37 4 12 26 41 50 64 64 63 73 131 13 99z"/>
<path d="M54498 32911 c-13 -11 -30 -38 -37 -61 -9 -29 -22 -47 -45 -61 -37
-22 -56 -56 -56 -100 0 -27 3 -30 23 -23 34 10 53 31 71 78 10 26 26 47 41 54
34 16 57 55 53 93 -4 40 -17 45 -50 20z"/>
<path d="M54702 32664 c-20 -13 -32 -44 -47 -116 -3 -18 -16 -32 -39 -43 -36
-18 -56 -55 -56 -106 0 -24 4 -29 24 -29 31 0 41 13 61 83 13 45 23 61 46 73
34 17 49 49 49 104 0 46 -9 54 -38 34z"/>
<path d="M54306 32639 c-10 -6 -29 -35 -42 -64 -14 -33 -34 -60 -52 -71 -17
-10 -39 -37 -51 -64 -13 -28 -32 -52 -47 -58 -15 -7 -33 -30 -45 -57 -11 -24
-32 -54 -48 -67 -16 -13 -38 -42 -49 -64 -12 -23 -36 -50 -55 -61 -20 -13 -42
-38 -55 -66 -13 -29 -33 -52 -52 -62 -17 -9 -41 -33 -54 -53 -13 -21 -36 -46
-51 -56 -14 -10 -31 -31 -37 -47 -6 -17 -27 -41 -50 -55 -21 -14 -46 -40 -55
-60 -10 -20 -27 -37 -40 -40 -13 -4 -39 -25 -58 -48 -19 -23 -45 -48 -58 -55
-13 -7 -31 -26 -41 -42 -10 -16 -35 -41 -57 -54 -22 -15 -41 -36 -45 -51 -4
-15 -23 -36 -46 -50 -22 -14 -46 -40 -53 -59 -9 -21 -25 -36 -44 -43 -16 -6
-40 -25 -53 -42 -12 -18 -40 -41 -61 -52 -21 -10 -48 -35 -59 -54 -11 -19 -33
-41 -49 -50 -16 -8 -39 -28 -51 -44 -12 -17 -41 -41 -64 -55 -41 -24 -81 -71
-70 -82 13 -14 87 20 113 51 15 18 43 41 60 50 18 9 39 29 47 45 9 17 31 35
56 45 26 10 48 29 61 50 11 19 36 44 54 55 19 11 40 34 47 51 8 17 28 38 47
48 19 9 42 31 51 47 9 17 35 39 57 50 52 25 229 208 243 250 7 21 22 37 46 48
19 9 44 33 56 52 11 20 34 43 50 51 16 8 39 31 50 50 11 19 33 41 47 49 15 7
36 32 46 54 10 24 32 49 52 61 21 12 41 36 53 63 10 23 33 56 50 72 18 17 40
46 50 65 10 19 32 45 49 58 17 12 40 40 51 62 11 22 33 46 49 54 15 8 36 32
46 53 9 21 35 54 56 73 32 28 41 44 46 83 6 50 -2 58 -41 36z"/>
<path d="M54485 32307 c-8 -13 -18 -38 -21 -56 -5 -23 -18 -39 -46 -57 -56
-36 -79 -114 -35 -122 28 -6 54 25 67 78 9 38 17 51 39 60 32 13 51 47 51 90
0 38 -32 41 -55 7z"/>
<path d="M54285 32007 c-8 -13 -20 -37 -26 -54 -6 -19 -25 -40 -45 -52 -26
-16 -37 -31 -46 -67 -9 -33 -20 -50 -40 -60 -33 -17 -53 -47 -62 -91 -4 -27
-2 -33 13 -33 25 0 57 38 72 88 7 23 18 42 24 42 22 0 65 41 80 76 8 19 30 50
50 68 28 26 35 41 35 70 0 29 -4 36 -20 36 -11 0 -26 -10 -35 -23z"/>
<path d="M54013 31620 c-12 -5 -33 -31 -47 -57 -14 -28 -38 -55 -56 -65 -17
-10 -37 -33 -45 -53 -9 -20 -28 -41 -46 -50 -20 -11 -38 -33 -51 -61 -11 -25
-29 -49 -41 -53 -28 -11 -49 -35 -75 -86 -19 -38 -69 -93 -158 -176 -60 -56
-124 -135 -135 -169 -7 -20 -24 -37 -49 -50 -22 -11 -42 -31 -50 -50 -8 -19
-28 -39 -51 -50 -26 -14 -42 -31 -50 -55 -10 -25 -22 -38 -46 -46 -33 -10 -87
-55 -169 -139 -114 -116 -143 -142 -194 -169 -32 -18 -62 -43 -72 -60 -9 -17
-32 -38 -51 -47 -19 -9 -42 -29 -51 -44 -9 -16 -33 -37 -54 -47 -21 -10 -43
-31 -52 -49 -10 -21 -32 -39 -65 -55 -40 -19 -51 -30 -53 -51 -2 -20 1 -28 13
-28 31 0 77 31 86 59 7 19 22 33 49 44 25 9 47 29 63 55 15 22 36 42 51 46 13
3 34 20 46 36 12 17 44 42 71 55 30 16 58 40 73 64 31 49 92 101 165 139 33
18 62 42 69 56 6 14 29 36 51 50 26 16 43 37 51 60 8 26 18 36 40 41 32 7 54
29 65 63 4 14 21 30 39 37 39 16 52 31 61 67 5 19 17 30 41 38 18 6 44 26 56
43 12 18 37 45 55 60 19 16 43 47 54 68 20 40 151 179 168 179 5 0 19 25 32
54 16 41 30 58 52 67 18 8 36 28 49 53 11 23 34 50 52 61 17 11 39 37 49 58
11 20 31 44 47 52 27 14 50 58 50 96 0 21 -5 22 -37 9z"/>
<path d="M52501 31473 c-12 -10 -27 -29 -34 -42 -7 -13 -29 -29 -52 -37 -45
-15 -75 -46 -75 -76 0 -45 109 2 125 53 4 10 26 27 51 38 37 17 64 48 64 77 0
12 -61 2 -79 -13z"/>
<path d="M52633 30885 c-17 -7 -39 -28 -48 -45 -10 -20 -32 -38 -60 -50 -33
-14 -48 -28 -59 -53 -11 -27 -21 -36 -48 -41 -38 -7 -74 -40 -80 -71 -2 -17 2
-19 27 -17 42 5 75 28 87 63 7 22 19 31 49 39 29 8 46 21 64 49 15 25 36 43
58 50 38 13 61 35 71 69 9 26 -11 29 -61 7z"/>
<path d="M45155 29070 c-181 -3 -332 -7 -335 -8 -3 -2 2 -7 11 -12 23 -14 788
-15 802 -1 24 24 -55 28 -478 21z"/>
<path d="M46035 26980 l-230 -5 -3 -32 -3 -33 275 0 276 0 0 30 c0 33 -24 51
-62 48 -13 -1 -126 -5 -253 -8z"/>
</g>
</svg>
